<?xml version="1.0" encoding="UTF-8"?>
<svg version="1.1" xmlns="http://www.w3.org/2000/svg" width="99" height="55">
<path d="M0 0 C0.76489746 -0.01023193 1.52979492 -0.02046387 2.31787109 -0.03100586 C9.08231903 0.07420581 15.0675946 1.75292669 20.9375 5.125 C24.72400191 9.37047184 25.08094716 13.76459195 24.8125 19.3125 C24 22.4375 24 22.4375 21 24.4375 C17.64453125 24.6328125 17.64453125 24.6328125 13.8125 24.5625 C12.54019531 24.54445313 11.26789063 24.52640625 9.95703125 24.5078125 C8.98121094 24.48460938 8.00539063 24.46140625 7 24.4375 C6.91363281 23.83421875 6.82726562 23.2309375 6.73828125 22.609375 C6.02904585 18.57519199 5.57992669 16.06575392 2.75 13 C-7.22047534 7.33495719 -18.13368535 8.74042696 -28.83422852 11.52636719 C-39.7775103 14.63169849 -50.06832264 19.56604422 -59.765625 25.46875 C-62.35188054 26.59006359 -63.4135197 26.43412544 -66 25.4375 C-48.04530052 10.30127078 -23.52907622 0.23801757 0 0 Z " fill="#1E4F4A" transform="translate(72,0.5625)"/>
<path d="M0 0 C0.33 -0.66 0.66 -1.32 1 -2 C2.98 -1.67 4.96 -1.34 7 -1 C3.95096065 0.68836992 1.15291691 1.47935109 -2.25 2.1875 C-13.45397875 4.8961542 -23.95328298 10.05852007 -33.765625 16.03125 C-36.35188054 17.15256359 -37.4135197 16.99662544 -40 16 C-35.89857463 12.5246239 -31.55845077 9.7737537 -26.9375 7.0625 C-26.19105225 6.62446045 -25.44460449 6.1864209 -24.67553711 5.73510742 C-7.89030293 -3.94515147 -7.89030293 -3.94515147 0 0 Z " fill="#6E827F" transform="translate(46,10)"/>
<path d="M0 0 C1.32 0 2.64 0 4 0 C4 1.32 4 2.64 4 4 C4.66 4.33 5.32 4.66 6 5 C6 6.32 6 7.64 6 9 C6.66 9.33 7.32 9.66 8 10 C7.67 11.65 7.34 13.3 7 15 C5.35 15.33 3.7 15.66 2 16 C2 14.68 2 13.36 2 12 C1.4225 12.33 0.845 12.66 0.25 13 C-2 14 -2 14 -6 14 C-5.8125 11.625 -5.8125 11.625 -5 9 C-2.4375 7.6875 -2.4375 7.6875 0 7 C-0.66 6.67 -1.32 6.34 -2 6 C-1.125 1.125 -1.125 1.125 0 0 Z " fill="#003D38" transform="translate(21,35)"/>
<path d="M0 0 C1.21816406 0.03480469 1.21816406 0.03480469 2.4609375 0.0703125 C3.68683594 0.09738281 3.68683594 0.09738281 4.9375 0.125 C5.87722656 0.15980469 5.87722656 0.15980469 6.8359375 0.1953125 C6.5059375 1.5153125 6.1759375 2.8353125 5.8359375 4.1953125 C5.5059375 3.8653125 5.1759375 3.5353125 4.8359375 3.1953125 C3.16976635 3.15467418 1.50205655 3.1525915 -0.1640625 3.1953125 C-1.17517343 6.24444478 -1.17517343 6.24444478 -0.1640625 9.1953125 C2.36326985 9.85086369 2.36326985 9.85086369 4.8359375 10.1953125 C4.1759375 8.5453125 3.5159375 6.8953125 2.8359375 5.1953125 C4.8159375 5.1953125 6.7959375 5.1953125 8.8359375 5.1953125 C8.1759375 7.5053125 7.5159375 9.8153125 6.8359375 12.1953125 C-1.35560807 12.81354235 -1.35560807 12.81354235 -4.2890625 10.5703125 C-5.4592839 7.39399728 -5.07619084 5.42284353 -4.1640625 2.1953125 C-2.1640625 0.1953125 -2.1640625 0.1953125 0 0 Z " fill="#000000" transform="translate(59.1640625,20.8046875)"/>
<path d="M0 0 C1.134375 0.020625 2.26875 0.04125 3.4375 0.0625 C3.1075 1.3825 2.7775 2.7025 2.4375 4.0625 C1.7775 4.0625 1.1175 4.0625 0.4375 4.0625 C1.7575 5.0525 3.0775 6.0425 4.4375 7.0625 C4.1075 8.7125 3.7775 10.3625 3.4375 12.0625 C0.7975 12.0625 -1.8425 12.0625 -4.5625 12.0625 C-4.2325 10.7425 -3.9025 9.4225 -3.5625 8.0625 C-1.0875 9.0525 -1.0875 9.0525 1.4375 10.0625 C1.4375 9.4025 1.4375 8.7425 1.4375 8.0625 C0.633125 7.835625 -0.17125 7.60875 -1 7.375 C-3.5625 6.0625 -3.5625 6.0625 -4.4375 3.5 C-4.47875 2.695625 -4.52 1.89125 -4.5625 1.0625 C-3.5625 0.0625 -3.5625 0.0625 0 0 Z " fill="#000000" transform="translate(42.5625,20.9375)"/>
<path d="M0 0 C2 1 4 2 6 3 C6.33 2.34 6.66 1.68 7 1 C9.97 1.495 9.97 1.495 13 2 C5.78678125 5.96727031 -2.88928457 7.22012352 -11 8 C-10.34 7.67 -9.68 7.34 -9 7 C-8.773125 6.38125 -8.54625 5.7625 -8.3125 5.125 C-6.28913586 1.8490771 -3.54637201 1.20323336 0 0 Z " fill="#426561" transform="translate(40,7)"/>
<path d="M0 0 C1.98 0 3.96 0 6 0 C6 3.96 6 7.92 6 12 C4.02 12 2.04 12 0 12 C0.33 11.34 0.66 10.68 1 10 C1.15898854 8.08499697 1.15898854 8.08499697 1.125 6 C1.12757812 5.29875 1.13015625 4.5975 1.1328125 3.875 C1.11377236 1.90846225 1.11377236 1.90846225 0 0 Z " fill="#000000" transform="translate(48,21)"/>
<path d="M0 0 C-0.33 0.66 -0.66 1.32 -1 2 C-1 2.99 -1 3.98 -1 5 C-4.50776784 6.60355101 -7.14354879 7.22036864 -11 7 C-9.90537324 3.8255824 -9.01822665 3.01085843 -6.0625 1.25 C-3 0 -3 0 0 0 Z " fill="#57706C" transform="translate(33,11)"/>
<path d="M0 0 C0.99 0 1.98 0 3 0 C3 0.99 3 1.98 3 3 C3.66 3 4.32 3 5 3 C4.67 4.65 4.34 6.3 4 8 C2.68 8 1.36 8 0 8 C-0.38063221 5.6739143 -0.71269945 3.33944736 -1 1 C-0.67 0.67 -0.34 0.34 0 0 Z " fill="#003833" transform="translate(19,26)"/>
<path d="M0 0 C1.32 0 2.64 0 4 0 C3.67 1.65 3.34 3.3 3 5 C1.35 5.33 -0.3 5.66 -2 6 C-1.125 1.125 -1.125 1.125 0 0 Z " fill="#003E37" transform="translate(14,38)"/>
<path d="M0 0 C0 0.66 0 1.32 0 2 C-4.15267176 5.11450382 -4.15267176 5.11450382 -7.3125 4.6875 C-7.869375 4.460625 -8.42625 4.23375 -9 4 C-4.5 0 -4.5 0 0 0 Z " fill="#60726F" transform="translate(15,22)"/>
<path d="M0 0 C1.32 0 2.64 0 4 0 C3.67 1.65 3.34 3.3 3 5 C1.68 5 0.36 5 -1 5 C-0.67 3.35 -0.34 1.7 0 0 Z " fill="#003632" transform="translate(13,32)"/>
<path d="M0 0 C2.3125 0.1875 2.3125 0.1875 4 1 C3.01 1.33 2.02 1.66 1 2 C0.67 2.66 0.34 3.32 0 4 C0.66 4.33 1.32 4.66 2 5 C-0.31 5 -2.62 5 -5 5 C-2.75 2.4375 -2.75 2.4375 0 0 Z " fill="#02352F" transform="translate(52,4)"/>
<path d="M0 0 C1.32 0 2.64 0 4 0 C4 1.32 4 2.64 4 4 C2.68 4 1.36 4 0 4 C0 2.68 0 1.36 0 0 Z " fill="#004E15" transform="translate(43,46)"/>
<path d="M0 0 C0.99 0 1.98 0 3 0 C2.67 1.32 2.34 2.64 2 4 C1.01 4 0.02 4 -1 4 C-0.67 2.68 -0.34 1.36 0 0 Z " fill="#003E38" transform="translate(37,47)"/>
<path d="M0 0 C0.99 0 1.98 0 3 0 C2.67 1.32 2.34 2.64 2 4 C1.01 4 0.02 4 -1 4 C-0.67 2.68 -0.34 1.36 0 0 Z " fill="#003D38" transform="translate(31,46)"/>
<path d="M0 0 C0.99 0 1.98 0 3 0 C2.67 1.32 2.34 2.64 2 4 C1.01 4 0.02 4 -1 4 C-0.67 2.68 -0.34 1.36 0 0 Z " fill="#003E38" transform="translate(50,45)"/>
<path d="M0 0 C0.99 0 1.98 0 3 0 C2.67 1.32 2.34 2.64 2 4 C1.01 4 0.02 4 -1 4 C-0.67 2.68 -0.34 1.36 0 0 Z " fill="#003D38" transform="translate(24,24)"/>
<path d="M0 0 C2.475 0.495 2.475 0.495 5 1 C4.34 1.66 3.68 2.32 3 3 C2.01 3 1.02 3 0 3 C0 2.01 0 1.02 0 0 Z " fill="#305E5A" transform="translate(60,42)"/>
<path d="M0 0 C0.99 0 1.98 0 3 0 C3 0.99 3 1.98 3 3 C2.01 3 1.02 3 0 3 C0 2.01 0 1.02 0 0 Z " fill="#003E39" transform="translate(55,44)"/>
<path d="M0 0 C0.99 0 1.98 0 3 0 C3 0.99 3 1.98 3 3 C2.01 3 1.02 3 0 3 C0 2.01 0 1.02 0 0 Z " fill="#003D37" transform="translate(27,19)"/>
<path d="M0 0 C0.66 0 1.32 0 2 0 C2 0.66 2 1.32 2 2 C1.34 2 0.68 2 0 2 C0 1.34 0 0.68 0 0 Z " fill="#003D37" transform="translate(66,40)"/>
<path d="M0 0 C0.66 0 1.32 0 2 0 C2 0.66 2 1.32 2 2 C1.34 2 0.68 2 0 2 C0 1.34 0 0.68 0 0 Z " fill="#003E37" transform="translate(71,38)"/>
<path d="M0 0 C0.66 0 1.32 0 2 0 C2 0.66 2 1.32 2 2 C1.34 2 0.68 2 0 2 C0 1.34 0 0.68 0 0 Z " fill="#003D38" transform="translate(76,36)"/>
<path d="M0 0 C4 1 4 1 4 1 Z " fill="#FAFAFA" transform="translate(68,32)"/>
<path d="" fill="#FFFFFF" transform="translate(0,0)"/>
<path d="" fill="#FFFFFF" transform="translate(0,0)"/>
<path d="" fill="#FFFFFF" transform="translate(0,0)"/>
<path d="" fill="#FFFFFF" transform="translate(0,0)"/>
</svg>
