<?xml version="1.0" encoding="UTF-8"?>
<svg version="1.1" xmlns="http://www.w3.org/2000/svg" width="970" height="41">
<path d="M0 0 C320.1 0 640.2 0 970 0 C970 13.53 970 27.06 970 41 C649.9 41 329.8 41 0 41 C0 27.47 0 13.94 0 0 Z " fill="#BAB7B4" transform="translate(0,0)"/>
<path d="M0 0 C320.1 0 640.2 0 970 0 C970 13.53 970 27.06 970 41 C966.7 41 963.4 41 960 41 C961.485 39.515 961.485 39.515 963 38 C963.33109523 35.20859238 963.48857678 32.62783312 963.51171875 29.83203125 C963.52966995 29.03721848 963.54762115 28.2424057 963.56611633 27.42350769 C963.6202697 24.88655899 963.65413028 22.34979893 963.6875 19.8125 C963.72066874 18.09177059 963.75515799 16.3710661 963.79101562 14.65039062 C963.87599873 10.43372978 963.94278542 6.21712536 964 2 C872.90024787 2.04395219 781.800498 2.09158953 690.70075989 2.15898132 C689.33985593 2.15998695 687.97895197 2.16099257 686.61804801 2.16199819 C658.05395888 2.18311855 629.48987024 2.20485563 600.92578213 2.22730538 C586.57765271 2.23858153 572.22952321 2.24973914 557.88139361 2.26078469 C555.71699708 2.26245158 553.55260056 2.26412186 551.38820403 2.26579228 C518.0492302 2.29149251 484.71025698 2.31464642 451.37127686 2.33044434 C450.65415217 2.3307842 449.93702749 2.33112406 449.19817176 2.33147423 C437.63558425 2.3369386 426.07299665 2.34218977 414.51040903 2.34741267 C381.21718544 2.36245467 347.92396601 2.37906629 314.6307497 2.40612316 C313.94647774 2.40667849 313.26220577 2.40723382 312.55719829 2.40780597 C297.53779607 2.42002347 282.51839468 2.43305218 267.49899383 2.44684957 C261.45620606 2.45238641 255.41341818 2.4578064 249.37063026 2.46318626 C248.37857898 2.46407371 248.37857898 2.46407371 247.36648626 2.46497908 C225.37674724 2.48459017 203.38702128 2.49376458 181.39727553 2.49846124 C159.98556296 2.5032541 138.57388026 2.51886349 117.16218372 2.54566566 C104.4253047 2.56127624 91.68848456 2.56844201 78.95159649 2.56376929 C70.45770824 2.56146804 61.96387589 2.56991586 53.47000525 2.58732411 C48.62111816 2.59694768 43.77235455 2.60168939 38.92346217 2.59339563 C34.52011207 2.58595537 30.11700619 2.59207873 25.71368593 2.60944067 C24.1230877 2.61326079 22.53246767 2.61195911 20.9418794 2.60515601 C18.79511716 2.59669058 16.64920636 2.60643253 14.50249547 2.62099248 C13.3100236 2.62177238 12.11755172 2.62255229 10.88894434 2.62335582 C8.02136151 2.77279941 8.02136151 2.77279941 6.12061735 4.3015963 C4.19529596 7.21960661 4.51713236 10.56245259 4.48828125 13.94921875 C4.46135445 15.10814384 4.46135445 15.10814384 4.43388367 16.29048157 C4.37973896 18.756099 4.34587269 21.22152243 4.3125 23.6875 C4.27933048 25.36005306 4.24484115 27.03258051 4.20898438 28.70507812 C4.12401051 32.8032455 4.0572198 36.90135494 4 41 C2.68 41 1.36 41 0 41 C0 27.47 0 13.94 0 0 Z " fill="#FBFAFA" transform="translate(0,0)"/>
<path d="M0 0 C4 1 4 1 5.75 3.5625 C6.1625 4.366875 6.575 5.17125 7 6 C7.33 4.02 7.66 2.04 8 0 C8.99 0 9.98 0 11 0 C11 4.62 11 9.24 11 14 C7 13 7 13 5.25 10.4375 C4.8375 9.633125 4.425 8.82875 4 8 C3.67 9.98 3.34 11.96 3 14 C2.01 14 1.02 14 0 14 C0 9.38 0 4.76 0 0 Z " fill="#3F3F3E" transform="translate(646,13)"/>
<path d="M0 0 C0.825 0.04125 1.65 0.0825 2.5 0.125 C3.16 0.125 3.82 0.125 4.5 0.125 C5.49 0.125 6.48 0.125 7.5 0.125 C7.5 3.425 7.5 6.725 7.5 10.125 C6.18 9.795 4.86 9.465 3.5 9.125 C3.17 9.455 2.84 9.785 2.5 10.125 C0.0625 10.375 0.0625 10.375 -2.5 10.125 C-4.64915785 6.90126323 -4.88286803 5.85796326 -4.5 2.125 C-2.5 0.125 -2.5 0.125 0 0 Z " fill="#83817F" transform="translate(673.5,16.875)"/>
<path d="M0 0 C0.99 0 1.98 0 3 0 C3.33 0.66 3.66 1.32 4 2 C4.66 1.34 5.32 0.68 6 0 C8.625 -0.125 8.625 -0.125 11 0 C11 0.99 11 1.98 11 3 C9.68 2.67 8.36 2.34 7 2 C7 2.66 7 3.32 7 4 C8.65 4.33 10.3 4.66 12 5 C11.67 6.65 11.34 8.3 11 10 C7.37 10 3.74 10 0 10 C0 6.7 0 3.4 0 0 Z " fill="#373736" transform="translate(851,17)"/>
<path d="M0 0 C0.99 0 1.98 0 3 0 C3 4.62 3 9.24 3 14 C0.69 14 -1.62 14 -4 14 C-6 12 -6 12 -6.25 9 C-6 6 -6 6 -4 4 C-2.68 4 -1.36 4 0 4 C0 2.68 0 1.36 0 0 Z " fill="#585756" transform="translate(875,13)"/>
<path d="M0 0 C0.99 0 1.98 0 3 0 C3 4.62 3 9.24 3 14 C0.69 14 -1.62 14 -4 14 C-6 12 -6 12 -6.25 9 C-6 6 -6 6 -4 4 C-2.68 4 -1.36 4 0 4 C0 2.68 0 1.36 0 0 Z " fill="#585756" transform="translate(606,13)"/>
<path d="M0 0 C2.14576637 -0.02685938 4.29162645 -0.04633088 6.4375 -0.0625 C7.63246094 -0.07410156 8.82742188 -0.08570312 10.05859375 -0.09765625 C13 0 13 0 14 1 C14.07179964 2.51928038 14.08392007 4.04167482 14.0625 5.5625 C14.05347656 6.38878906 14.04445313 7.21507812 14.03515625 8.06640625 C14.02355469 8.70449219 14.01195312 9.34257812 14 10 C13.34 10 12.68 10 12 10 C12 7.69 12 5.38 12 3 C11.01 3 10.02 3 9 3 C9 5.31 9 7.62 9 10 C8.01 10 7.02 10 6 10 C6 7.69 6 5.38 6 3 C5.01 3 4.02 3 3 3 C3 5.31 3 7.62 3 10 C2.01 10 1.02 10 0 10 C0 6.7 0 3.4 0 0 Z " fill="#403F3E" transform="translate(772,17)"/>
<path d="M0 0 C1.134375 0.020625 2.26875 0.04125 3.4375 0.0625 C3.49139087 2.02053507 3.53024217 3.97898909 3.5625 5.9375 C3.58570313 7.02804688 3.60890625 8.11859375 3.6328125 9.2421875 C3.4375 12.0625 3.4375 12.0625 1.4375 14.0625 C-1.1875 14.1875 -1.1875 14.1875 -3.5625 14.0625 C-3.5625 13.0725 -3.5625 12.0825 -3.5625 11.0625 C-2.2425 10.7325 -0.9225 10.4025 0.4375 10.0625 C-2.0375 9.0725 -2.0375 9.0725 -4.5625 8.0625 C-4.60491723 5.72955225 -4.60342937 3.39547433 -4.5625 1.0625 C-3.5625 0.0625 -3.5625 0.0625 0 0 Z " fill="#3B3A39" transform="translate(921.5625,16.9375)"/>
<path d="M0 0 C0.99 0 1.98 0 3 0 C3.67260351 1.76858691 4.33788395 3.53996016 5 5.3125 C5.37125 6.29863281 5.7425 7.28476562 6.125 8.30078125 C7 11 7 11 7 14 C6.01 14 5.02 14 4 14 C4 13.34 4 12.68 4 12 C2.35 12 0.7 12 -1 12 C-1 12.66 -1 13.32 -1 14 C-1.99 14 -2.98 14 -4 14 C-3.00956295 9.16371695 -2.04301154 4.52381127 0 0 Z " fill="#3F3E3D" transform="translate(898,13)"/>
<path d="M0 0 C0.99 0 1.98 0 3 0 C3 0.99 3 1.98 3 3 C4.98 3 6.96 3 9 3 C9 6.3 9 9.6 9 13 C6.66705225 13.04241723 4.33297433 13.04092937 2 13 C0.18884044 11.18884044 0.61800552 8.38721773 0.4375 5.9375 C0.35371094 4.83277344 0.26992188 3.72804688 0.18359375 2.58984375 C0.09271484 1.30787109 0.09271484 1.30787109 0 0 Z " fill="#767472" transform="translate(819,14)"/>
<path d="M0 0 C0.99 0 1.98 0 3 0 C3 4.62 3 9.24 3 14 C1.02 14 -0.96 14 -3 14 C-5 12 -5 12 -5.125 8.375 C-5.08375 7.26125 -5.0425 6.1475 -5 5 C-3.35 4.67 -1.7 4.34 0 4 C0 2.68 0 1.36 0 0 Z " fill="#353433" transform="translate(730,13)"/>
<path d="M0 0 C0.99 0 1.98 0 3 0 C3 4.62 3 9.24 3 14 C1.02 14 -0.96 14 -3 14 C-5 12 -5 12 -5.125 8.375 C-5.08375 7.26125 -5.0425 6.1475 -5 5 C-3.35 4.67 -1.7 4.34 0 4 C0 2.68 0 1.36 0 0 Z " fill="#353433" transform="translate(626,13)"/>
<path d="M0 0 C0.66 0 1.32 0 2 0 C2 0.99 2 1.98 2 3 C2.804375 2.979375 3.60875 2.95875 4.4375 2.9375 C7 3 7 3 8 4 C8.23728814 10.52542373 8.23728814 10.52542373 7 13 C4.69 13 2.38 13 0 13 C0 8.71 0 4.42 0 0 Z " fill="#595856" transform="translate(789,14)"/>
<path d="M0 0 C0.78375 0.04125 1.5675 0.0825 2.375 0.125 C2.705 1.115 3.035 2.105 3.375 3.125 C1.725 3.125 0.075 3.125 -1.625 3.125 C-1.625 4.115 -1.625 5.105 -1.625 6.125 C1.345 6.62 1.345 6.62 4.375 7.125 C4.5 9.5 4.5 9.5 4.375 12.125 C2.375 14.125 2.375 14.125 -0.75 14.25 C-2.173125 14.188125 -2.173125 14.188125 -3.625 14.125 C-3.955 13.135 -4.285 12.145 -4.625 11.125 C-2.645 11.125 -0.665 11.125 1.375 11.125 C-0.01695915 8.3410817 -1.78075779 8.14601003 -4.625 7.125 C-4.75 4.75 -4.75 4.75 -4.625 2.125 C-2.625 0.125 -2.625 0.125 0 0 Z " fill="#3D3C3B" transform="translate(559.625,12.875)"/>
<path d="M0 0 C2.4375 0.9375 2.4375 0.9375 3.75 3 C4.0903125 3.9590625 4.0903125 3.9590625 4.4375 4.9375 C1.4675 4.4425 1.4675 4.4425 -1.5625 3.9375 C-1.8925 6.2475 -2.2225 8.5575 -2.5625 10.9375 C0.9025 10.4425 0.9025 10.4425 4.4375 9.9375 C3.7775 11.2575 3.1175 12.5775 2.4375 13.9375 C-0.4375 14.125 -0.4375 14.125 -3.5625 13.9375 C-6.09936376 10.13220436 -6.15605135 7.39840938 -5.5625 2.9375 C-3.93542062 0.11152002 -3.2520075 -0.07931726 0 0 Z " fill="#3A3A38" transform="translate(755.5625,13.0625)"/>
<path d="M0 0 C2.5625 0.1875 2.5625 0.1875 4.5625 2.1875 C4.5625 3.5075 4.5625 4.8275 4.5625 6.1875 C3.5725 6.5175 2.5825 6.8475 1.5625 7.1875 C2.5525 7.5175 3.5425 7.8475 4.5625 8.1875 C2.5625 10.1875 2.5625 10.1875 0.0625 10.4375 C-2.4375 10.1875 -2.4375 10.1875 -4.4375 8.1875 C-3.74456522 0.28804348 -3.74456522 0.28804348 0 0 Z " fill="#464544" transform="translate(739.4375,16.8125)"/>
<path d="M0 0 C2.5625 0.1875 2.5625 0.1875 4.5625 2.1875 C4.5625 3.5075 4.5625 4.8275 4.5625 6.1875 C3.5725 6.5175 2.5825 6.8475 1.5625 7.1875 C2.5525 7.5175 3.5425 7.8475 4.5625 8.1875 C2.5625 10.1875 2.5625 10.1875 0.0625 10.4375 C-2.4375 10.1875 -2.4375 10.1875 -4.4375 8.1875 C-3.74456522 0.28804348 -3.74456522 0.28804348 0 0 Z " fill="#464544" transform="translate(635.4375,16.8125)"/>
<path d="M0 0 C4.55555556 0.55555556 4.55555556 0.55555556 6 2 C6.1875 4.9375 6.1875 4.9375 6 8 C5.34 8.66 4.68 9.32 4 10 C-0.55555556 9.44444444 -0.55555556 9.44444444 -2 8 C-2.1875 5.0625 -2.1875 5.0625 -2 2 C-1.34 1.34 -0.68 0.68 0 0 Z " fill="#313130" transform="translate(764,17)"/>
<path d="M0 0 C4.55555556 0.55555556 4.55555556 0.55555556 6 2 C6.1875 4.9375 6.1875 4.9375 6 8 C5.34 8.66 4.68 9.32 4 10 C-0.55555556 9.44444444 -0.55555556 9.44444444 -2 8 C-2.1875 5.0625 -2.1875 5.0625 -2 2 C-1.34 1.34 -0.68 0.68 0 0 Z " fill="#313130" transform="translate(568,17)"/>
<path d="M0 0 C3.375 -0.125 3.375 -0.125 7 0 C9 2 9 2 9.1953125 3.9453125 C9.13020833 5.96354167 9.06510417 7.98177083 9 10 C8.01 10 7.02 10 6 10 C6 7.69 6 5.38 6 3 C5.01 3 4.02 3 3 3 C3 5.31 3 7.62 3 10 C2.01 10 1.02 10 0 10 C0 6.7 0 3.4 0 0 Z " fill="#403F3E" transform="translate(694,17)"/>
<path d="M0 0 C2.31 0.33 4.62 0.66 7 1 C7 3.97 7 6.94 7 10 C4.69 10 2.38 10 0 10 C-0.33 8.35 -0.66 6.7 -1 5 C0.65 4.34 2.3 3.68 4 3 C2.68 3 1.36 3 0 3 C0 2.01 0 1.02 0 0 Z " fill="#383736" transform="translate(705,17)"/>
<path d="M0 0 C2.31 0.33 4.62 0.66 7 1 C7 3.97 7 6.94 7 10 C4.69 10 2.38 10 0 10 C-0.33 8.35 -0.66 6.7 -1 5 C0.65 4.34 2.3 3.68 4 3 C2.68 3 1.36 3 0 3 C0 2.01 0 1.02 0 0 Z " fill="#383736" transform="translate(660,17)"/>
<path d="M0 0 C2.375 -0.125 2.375 -0.125 5 0 C7 2 7 2 7.1953125 3.9453125 C7.13020833 5.96354167 7.06510417 7.98177083 7 10 C4.69 10 2.38 10 0 10 C-0.33 8.35 -0.66 6.7 -1 5 C0.65 4.67 2.3 4.34 4 4 C4 3.34 4 2.68 4 2 C2.68 2.33 1.36 2.66 0 3 C0 2.01 0 1.02 0 0 Z " fill="#3F3F3E" transform="translate(945,17)"/>
<path d="M0 0 C2.375 -0.125 2.375 -0.125 5 0 C7 2 7 2 7.1953125 3.9453125 C7.13020833 5.96354167 7.06510417 7.98177083 7 10 C4.69 10 2.38 10 0 10 C-0.33 8.35 -0.66 6.7 -1 5 C0.65 4.67 2.3 4.34 4 4 C4 3.34 4 2.68 4 2 C2.68 2.33 1.36 2.66 0 3 C0 2.01 0 1.02 0 0 Z " fill="#3F3F3E" transform="translate(612,17)"/>
<path d="M0 0 C3.125 0.375 3.125 0.375 6 1 C6 2.65 6 4.3 6 6 C4.35 6 2.7 6 1 6 C1 6.66 1 7.32 1 8 C2.32 7.67 3.64 7.34 5 7 C5 7.99 5 8.98 5 10 C2.625 10.125 2.625 10.125 0 10 C-2 8 -2 8 -2.25 5 C-2 2 -2 2 0 0 Z " fill="#494847" transform="translate(882,17)"/>
<path d="M0 0 C3.125 0.375 3.125 0.375 6 1 C6 2.65 6 4.3 6 6 C4.35 6 2.7 6 1 6 C1 6.66 1 7.32 1 8 C2.32 7.67 3.64 7.34 5 7 C5 7.99 5 8.98 5 10 C2.625 10.125 2.625 10.125 0 10 C-2 8 -2 8 -2.25 5 C-2 2 -2 2 0 0 Z " fill="#494847" transform="translate(842,17)"/>
<path d="M0 0 C3.125 0.375 3.125 0.375 6 1 C6 2.65 6 4.3 6 6 C4.35 6 2.7 6 1 6 C1 6.66 1 7.32 1 8 C2.32 7.67 3.64 7.34 5 7 C5 7.99 5 8.98 5 10 C2.625 10.125 2.625 10.125 0 10 C-2 8 -2 8 -2.25 5 C-2 2 -2 2 0 0 Z " fill="#494847" transform="translate(592,17)"/>
<path d="M0 0 C2.33294775 -0.04241723 4.66702567 -0.04092937 7 0 C8 1 8 1 8.09765625 3.06640625 C8.08605469 3.89011719 8.07445312 4.71382812 8.0625 5.5625 C8.05347656 6.38878906 8.04445313 7.21507812 8.03515625 8.06640625 C8.02355469 8.70449219 8.01195312 9.34257812 8 10 C7.01 10 6.02 10 5 10 C5 7.69 5 5.38 5 3 C4.01 3 3.02 3 2 3 C2 5.31 2 7.62 2 10 C1.34 10 0.68 10 0 10 C0 6.7 0 3.4 0 0 Z " fill="#434241" transform="translate(907,17)"/>
<path d="M0 0 C0.99 0 1.98 0 3 0 C3 2.31 3 4.62 3 7 C3.99 7 4.98 7 6 7 C6 4.69 6 2.38 6 0 C6.66 0 7.32 0 8 0 C8 3.3 8 6.6 8 10 C5.125 10.125 5.125 10.125 2 10 C0 8 0 8 -0.1953125 6.0546875 C-0.13020833 4.03645833 -0.06510417 2.01822917 0 0 Z " fill="#3F3F3D" transform="translate(799,17)"/>
<path d="M0 0 C1.32 0.66 2.64 1.32 4 2 C4.125 4.875 4.125 4.875 4 8 C2 10 2 10 -0.5625 10.1875 C-3 10 -3 10 -4 9 C-4.04080783 7.00041636 -4.04254356 4.99954746 -4 3 C-3.34 2.67 -2.68 2.34 -2 2 C-2 3.65 -2 5.3 -2 7 C-1.01 7 -0.02 7 1 7 C1 5.35 1 3.7 1 2 C0.34 1.67 -0.32 1.34 -1 1 C-0.67 0.67 -0.34 0.34 0 0 Z " fill="#41403F" transform="translate(932,17)"/>
<path d="M0 0 C1.32 0.66 2.64 1.32 4 2 C4.125 4.875 4.125 4.875 4 8 C2 10 2 10 -0.5625 10.1875 C-3 10 -3 10 -4 9 C-4.04080783 7.00041636 -4.04254356 4.99954746 -4 3 C-3.34 2.67 -2.68 2.34 -2 2 C-2 3.65 -2 5.3 -2 7 C-1.01 7 -0.02 7 1 7 C1 5.35 1 3.7 1 2 C0.34 1.67 -0.32 1.34 -1 1 C-0.67 0.67 -0.34 0.34 0 0 Z " fill="#41403F" transform="translate(688,17)"/>
<path d="M0 0 C1.65 0 3.3 0 5 0 C5 0.99 5 1.98 5 3 C3.68 2.67 2.36 2.34 1 2 C1 2.66 1 3.32 1 4 C2.65 4.33 4.3 4.66 6 5 C5.67 6.65 5.34 8.3 5 10 C3.02 10 1.04 10 -1 10 C-1 9.01 -1 8.02 -1 7 C0.98 7.495 0.98 7.495 3 8 C3 7.34 3 6.68 3 6 C1.68 5.67 0.36 5.34 -1 5 C-0.67 3.35 -0.34 1.7 0 0 Z " fill="#373736" transform="translate(811,17)"/>
<path d="M0 0 C0.78375 0.04125 1.5675 0.0825 2.375 0.125 C2.375 1.115 2.375 2.105 2.375 3.125 C1.055 3.125 -0.265 3.125 -1.625 3.125 C-1.625 4.445 -1.625 5.765 -1.625 7.125 C0.025 7.455 1.675 7.785 3.375 8.125 C3.045 8.785 2.715 9.445 2.375 10.125 C0 10.3125 0 10.3125 -2.625 10.125 C-4.77415785 6.90126323 -5.00786803 5.85796326 -4.625 2.125 C-2.625 0.125 -2.625 0.125 0 0 Z " fill="#434241" transform="translate(673.625,16.875)"/>
<path d="M0 0 C0.99 0 1.98 0 3 0 C4.01866229 1.65532623 5.01810813 3.32260138 6 5 C6.99 5.33 7.98 5.66 9 6 C9 6.66 9 7.32 9 8 C8.2575 8.144375 7.515 8.28875 6.75 8.4375 C4.48735322 8.90031411 2.2405393 9.43986518 0 10 C0 6.7 0 3.4 0 0 Z " fill="#6A6967" transform="translate(851,17)"/>
<path d="M0 0 C0.99 0 1.98 0 3 0 C3.66 0.99 4.32 1.98 5 3 C5.33 2.01 5.66 1.02 6 0 C6.99 0 7.98 0 9 0 C8.01 3.3 7.02 6.6 6 10 C5.01 10 4.02 10 3 10 C2.01 6.7 1.02 3.4 0 0 Z " fill="#3A3A39" transform="translate(830,17)"/>
<path d="M0 0 C0.78375 0.04125 1.5675 0.0825 2.375 0.125 C2.375 1.115 2.375 2.105 2.375 3.125 C1.385 3.125 0.395 3.125 -0.625 3.125 C-0.955 4.445 -1.285 5.765 -1.625 7.125 C-0.305 7.125 1.015 7.125 2.375 7.125 C2.375 8.115 2.375 9.105 2.375 10.125 C0 10.25 0 10.25 -2.625 10.125 C-4.625 8.125 -4.625 8.125 -4.875 5.125 C-4.55416156 1.2749387 -3.94115238 0.18767392 0 0 Z " fill="#3D3C3B" transform="translate(580.625,16.875)"/>
<path d="M0 0 C0.99 0 1.98 0 3 0 C3.66 2.31 4.32 4.62 5 7 C4.34 7 3.68 7 3 7 C3 7.66 3 8.32 3 9 C2.01 9 1.02 9 0 9 C-1.125 7.3125 -1.125 7.3125 -2 5 C-1.125 2.25 -1.125 2.25 0 0 Z " fill="#52514F" transform="translate(898,13)"/>
<path d="M0 0 C0.66 0 1.32 0 2 0 C2 0.99 2 1.98 2 3 C2.99 3.33 3.98 3.66 5 4 C4.67 4.33 4.34 4.66 4 5 C3.95907063 7.33297433 3.95758277 9.66705225 4 12 C2.68 12.33 1.36 12.66 0 13 C0 8.71 0 4.42 0 0 Z " fill="#363635" transform="translate(789,14)"/>
<path d="M0 0 C0.99 0 1.98 0 3 0 C3 0.99 3 1.98 3 3 C3.66 3 4.32 3 5 3 C5 3.66 5 4.32 5 5 C4.34 5 3.68 5 3 5 C3 6.98 3 8.96 3 11 C3.66 11 4.32 11 5 11 C5 11.66 5 12.32 5 13 C3.68 12.67 2.36 12.34 1 12 C0.67 8.04 0.34 4.08 0 0 Z " fill="#3D3C3B" transform="translate(819,14)"/>
<path d="M0 0 C0.99 0.33 1.98 0.66 3 1 C2.34 1 1.68 1 1 1 C0.67 4.63 0.34 8.26 0 12 C-3 11 -3 11 -5 8 C-4.625 5.8125 -4.625 5.8125 -4 4 C-2.68 4 -1.36 4 0 4 C0 2.68 0 1.36 0 0 Z " fill="#6E6C6A" transform="translate(730,13)"/>
<path d="M0 0 C0.99 0.33 1.98 0.66 3 1 C2.34 1 1.68 1 1 1 C0.67 4.63 0.34 8.26 0 12 C-3 11 -3 11 -5 8 C-4.625 5.8125 -4.625 5.8125 -4 4 C-2.68 4 -1.36 4 0 4 C0 2.68 0 1.36 0 0 Z " fill="#6E6C6A" transform="translate(626,13)"/>
<path d="M0 0 C2.4375 0.1875 2.4375 0.1875 5 1 C6.3125 3.0625 6.3125 3.0625 7 5 C4.03 4.505 4.03 4.505 1 4 C0.67 5.65 0.34 7.3 0 9 C-0.33 7.68 -0.66 6.36 -1 5 C-1.66 5 -2.32 5 -3 5 C-1.125 1.125 -1.125 1.125 0 0 Z " fill="#474645" transform="translate(753,13)"/>
<path d="M0 0 C0.99 0 1.98 0 3 0 C3 3.3 3 6.6 3 10 C2.01 10 1.02 10 0 10 C0 6.7 0 3.4 0 0 Z " fill="#3E3E3D" transform="translate(585,17)"/>
<path d="M0 0 C0.66 0 1.32 0 2 0 C2.06058594 0.68707031 2.12117187 1.37414063 2.18359375 2.08203125 C2.26738281 2.98308594 2.35117187 3.88414063 2.4375 4.8125 C2.51871094 5.70582031 2.59992187 6.59914063 2.68359375 7.51953125 C2.93489767 10.12743559 2.93489767 10.12743559 4 13 C2.68 12.67 1.36 12.34 0 12 C0 8.04 0 4.08 0 0 Z " fill="#313130" transform="translate(938,14)"/>
<path d="M0 0 C0.66 0 1.32 0 2 0 C2.06058594 0.68707031 2.12117187 1.37414063 2.18359375 2.08203125 C2.26738281 2.98308594 2.35117187 3.88414063 2.4375 4.8125 C2.51871094 5.70582031 2.59992187 6.59914063 2.68359375 7.51953125 C2.93489767 10.12743559 2.93489767 10.12743559 4 13 C2.68 12.67 1.36 12.34 0 12 C0 8.04 0 4.08 0 0 Z " fill="#313130" transform="translate(715,14)"/>
<path d="M0 0 C3 2 3 2 4 5 C4.99 5.33 5.98 5.66 7 6 C7 6.66 7 7.32 7 8 C5.824375 8.2165625 5.824375 8.2165625 4.625 8.4375 C2.03578982 8.87798925 2.03578982 8.87798925 0 10 C0 6.7 0 3.4 0 0 Z " fill="#918F8C" transform="translate(807,17)"/>
<path d="M0 0 C1.32 0.66 2.64 1.32 4 2 C3.34 2 2.68 2 2 2 C2 2.99 2 3.98 2 5 C3.32 4.67 4.64 4.34 6 4 C6 4.99 6 5.98 6 7 C3.625 7.125 3.625 7.125 1 7 C0.34 6.34 -0.32 5.68 -1 5 C-0.625 2.375 -0.625 2.375 0 0 Z " fill="#353433" transform="translate(881,20)"/>
<path d="M0 0 C1.32 0.66 2.64 1.32 4 2 C3.34 2 2.68 2 2 2 C2 2.99 2 3.98 2 5 C3.32 4.67 4.64 4.34 6 4 C6 4.99 6 5.98 6 7 C3.625 7.125 3.625 7.125 1 7 C0.34 6.34 -0.32 5.68 -1 5 C-0.625 2.375 -0.625 2.375 0 0 Z " fill="#353433" transform="translate(841,20)"/>
<path d="M0 0 C1.32 0.66 2.64 1.32 4 2 C3.34 2 2.68 2 2 2 C2 2.99 2 3.98 2 5 C3.32 4.67 4.64 4.34 6 4 C6 4.99 6 5.98 6 7 C3.625 7.125 3.625 7.125 1 7 C0.34 6.34 -0.32 5.68 -1 5 C-0.625 2.375 -0.625 2.375 0 0 Z " fill="#353433" transform="translate(591,20)"/>
<path d="M0 0 C3 1 3 1 4 2 C4.04063832 3.66617115 4.042721 5.33388095 4 7 C3.01 7 2.02 7 1 7 C0.67 5.68 0.34 4.36 0 3 C-0.33 4.65 -0.66 6.3 -1 8 C-1.33 8 -1.66 8 -2 8 C-2.125 5.125 -2.125 5.125 -2 2 C-1.34 1.34 -0.68 0.68 0 0 Z " fill="#7F7D7B" transform="translate(929,17)"/>
<path d="M0 0 C3 1 3 1 4 2 C4.04063832 3.66617115 4.042721 5.33388095 4 7 C3.01 7 2.02 7 1 7 C0.67 5.68 0.34 4.36 0 3 C-0.33 4.65 -0.66 6.3 -1 8 C-1.33 8 -1.66 8 -2 8 C-2.125 5.125 -2.125 5.125 -2 2 C-1.34 1.34 -0.68 0.68 0 0 Z " fill="#7F7D7B" transform="translate(685,17)"/>
<path d="M0 0 C1.65 0 3.3 0 5 0 C4.67 2.31 4.34 4.62 4 7 C1 6 1 6 -1 4 C-0.625 1.875 -0.625 1.875 0 0 Z " fill="#696866" transform="translate(918,17)"/>
<path d="M0 0 C1.65 0 3.3 0 5 0 C4.01 1.485 4.01 1.485 3 3 C2.60612212 5.32387947 2.26513915 7.65793749 2 10 C1.34 10 0.68 10 0 10 C0 6.7 0 3.4 0 0 Z " fill="#313130" transform="translate(907,17)"/>
<path d="M0 0 C2 1 2 1 4 3 C4 4.32 4 5.64 4 7 C2.68 7 1.36 7 0 7 C-0.66 5.35 -1.32 3.7 -2 2 C-1.34 1.34 -0.68 0.68 0 0 Z " fill="#747371" transform="translate(764,17)"/>
<path d="M0 0 C2 1 2 1 4 3 C4 4.32 4 5.64 4 7 C2.68 7 1.36 7 0 7 C-0.66 5.35 -1.32 3.7 -2 2 C-1.34 1.34 -0.68 0.68 0 0 Z " fill="#747371" transform="translate(568,17)"/>
<path d="M0 0 C1.98 0.495 1.98 0.495 4 1 C4 3.97 4 6.94 4 10 C3.34 10 2.68 10 2 10 C1.87625 8.88625 1.7525 7.7725 1.625 6.625 C1.3534187 2.96896323 1.3534187 2.96896323 -1 1 C-0.67 0.67 -0.34 0.34 0 0 Z " fill="#333332" transform="translate(782,17)"/>
<path d="M0 0 C0.33 0 0.66 0 1 0 C1 4.29 1 8.58 1 13 C0.01 12.67 -0.98 12.34 -2 12 C-1.34 8.04 -0.68 4.08 0 0 Z " fill="#30302F" transform="translate(876,14)"/>
<path d="M0 0 C0.66 0 1.32 0 2 0 C2 3.3 2 6.6 2 10 C0.68 9.34 -0.64 8.68 -2 8 C-1.67 7.67 -1.34 7.34 -1 7 C-0.63239269 4.67182036 -0.29758419 2.3381615 0 0 Z " fill="#2F2F2E" transform="translate(805,17)"/>
<path d="M0 0 C0.33 0 0.66 0 1 0 C1 4.29 1 8.58 1 13 C0.01 12.67 -0.98 12.34 -2 12 C-1.34 8.04 -0.68 4.08 0 0 Z " fill="#30302F" transform="translate(607,14)"/>
<path d="M0 0 C1.65 0.33 3.3 0.66 5 1 C4.67 1.99 4.34 2.98 4 4 C2.35 4.33 0.7 4.66 -1 5 C-0.67 3.35 -0.34 1.7 0 0 Z " fill="#565654" transform="translate(705,21)"/>
<path d="M0 0 C1.65 0.33 3.3 0.66 5 1 C4.67 1.99 4.34 2.98 4 4 C2.35 4.33 0.7 4.66 -1 5 C-0.67 3.35 -0.34 1.7 0 0 Z " fill="#565654" transform="translate(660,21)"/>
<path d="M0 0 C0.78375 0.04125 1.5675 0.0825 2.375 0.125 C2.375 1.115 2.375 2.105 2.375 3.125 C1.385 3.125 0.395 3.125 -0.625 3.125 C-1.285 4.445 -1.945 5.765 -2.625 7.125 C-3.285 5.475 -3.945 3.825 -4.625 2.125 C-2.625 0.125 -2.625 0.125 0 0 Z " fill="#454443" transform="translate(580.625,16.875)"/>
<path d="M0 0 C0.99 0.33 1.98 0.66 3 1 C3.33 2.98 3.66 4.96 4 7 C3.01 7 2.02 7 1 7 C1 6.01 1 5.02 1 4 C0.34 3.67 -0.32 3.34 -1 3 C-0.67 2.01 -0.34 1.02 0 0 Z " fill="#383736" transform="translate(901,20)"/>
<path d="M0 0 C0.33 1.32 0.66 2.64 1 4 C1.99 4 2.98 4 4 4 C4.33 4.99 4.66 5.98 5 7 C3.35 6.67 1.7 6.34 0 6 C-0.38218767 4.34385343 -0.71395102 2.67542976 -1 1 C-0.67 0.67 -0.34 0.34 0 0 Z " fill="#393837" transform="translate(763,20)"/>
<path d="M0 0 C0.33 1.32 0.66 2.64 1 4 C1.99 4 2.98 4 4 4 C4.33 4.99 4.66 5.98 5 7 C3.35 6.67 1.7 6.34 0 6 C-0.38218767 4.34385343 -0.71395102 2.67542976 -1 1 C-0.67 0.67 -0.34 0.34 0 0 Z " fill="#393837" transform="translate(567,20)"/>
<path d="M0 0 C0.33 0 0.66 0 1 0 C1.66 2.64 2.32 5.28 3 8 C1.68 7.67 0.36 7.34 -1 7 C-1.04254356 5.00045254 -1.04080783 2.99958364 -1 1 C-0.67 0.67 -0.34 0.34 0 0 Z " fill="#353533" transform="translate(929,19)"/>
<path d="M0 0 C0.33 0 0.66 0 1 0 C1.66 2.64 2.32 5.28 3 8 C1.68 7.67 0.36 7.34 -1 7 C-1.04254356 5.00045254 -1.04080783 2.99958364 -1 1 C-0.67 0.67 -0.34 0.34 0 0 Z " fill="#353533" transform="translate(685,19)"/>
<path d="M0 0 C1.67542976 0.28604898 3.34385343 0.61781233 5 1 C5.33 1.99 5.66 2.98 6 4 C3.03824877 3.38722388 1.61941217 2.74627478 -1 1 C-0.67 0.67 -0.34 0.34 0 0 Z " fill="#3B3B39" transform="translate(754,14)"/>
</svg>
