<?xml version="1.0" encoding="UTF-8"?>
<svg version="1.1" xmlns="http://www.w3.org/2000/svg" width="970" height="41">
<path d="M0 0 C1.19527952 0.00015598 2.39055905 0.00031196 3.62205916 0.00047267 C4.62186835 -0.00144446 4.62186835 -0.00144446 5.64187571 -0.00340032 C7.90781563 -0.00649822 10.17368775 -0.00237886 12.4396255 0.00162334 C14.07459124 0.00088462 15.70955682 -0.00029298 17.34452197 -0.00187316 C21.87941033 -0.00496319 26.41427653 -0.00174979 30.94916326 0.00240497 C35.86678993 0.00582141 40.78441421 0.00347179 45.70204132 0.00182748 C54.33469237 -0.00025249 62.96733654 0.0014081 71.59998679 0.00546569 C84.43657082 0.01148256 97.27315049 0.01180319 110.10973568 0.0109237 C131.69934536 0.00960748 153.28895199 0.01295999 174.87856078 0.01894111 C196.26583276 0.02485103 217.65310357 0.02871532 239.04037642 0.02979392 C240.03588831 0.02984554 240.03588831 0.02984554 241.05151154 0.0298982 C247.11296351 0.03021139 253.17441548 0.03049908 259.23586745 0.03075617 C274.30541887 0.03139565 289.37497027 0.03235503 304.44452166 0.03353137 C305.47398737 0.03361135 305.47398737 0.03361135 306.52425036 0.03369294 C339.92694535 0.03631583 373.3296395 0.04262395 406.73233389 0.04923171 C418.32695873 0.05152333 429.92158356 0.05379867 441.51620841 0.05600661 C442.23528697 0.05614356 442.95436553 0.05628051 443.69523435 0.05642161 C477.10983375 0.06276315 510.52443329 0.06649046 543.93903313 0.06954141 C546.10775592 0.06973947 548.2764787 0.06993867 550.44520148 0.07013809 C564.81717898 0.07145784 579.18915649 0.0727325 593.561134 0.07397695 C622.15894451 0.07645359 650.75675499 0.07919528 679.35456545 0.08211899 C680.71653448 0.08225823 682.0785035 0.08239729 683.44047253 0.08253616 C774.0786946 0.09178005 864.71691571 0.10766854 955.35513663 0.12467116 C955.45427236 4.87517936 955.52672927 9.62508092 955.57486319 14.37638015 C955.59493555 15.99139575 955.62219993 17.60633906 955.65689444 19.22110671 C955.70560878 21.54721618 955.72814817 23.87236209 955.74576163 26.19888991 C955.76640677 26.91679198 955.78705191 27.63469405 955.80832266 28.37435073 C955.80985836 31.8324459 955.40751282 34.02845609 953.74569244 37.08122046 C950.59074861 39.7780712 948.84041125 39.74835607 944.71561861 39.74566365 C943.71005803 39.75524929 943.71005803 39.75524929 942.68418309 39.76502859 C940.4226965 39.78042448 938.16293439 39.75998788 935.90150427 39.73991031 C934.26303609 39.74360679 932.62457164 39.7494979 930.98611831 39.7573928 C926.45531647 39.77279751 921.92507192 39.75681424 917.39431142 39.73600213 C912.4760921 39.71888221 907.55793131 39.73067529 902.63970089 39.73888958 C894.01062662 39.74927762 885.38172437 39.74100669 876.75267005 39.72069854 C863.92151839 39.69058456 851.09047573 39.6890138 838.25929519 39.69340848 C816.67767135 39.69998595 795.09612391 39.68324081 773.51452231 39.65332145 C752.13809946 39.62376232 730.76171018 39.60444847 709.38526511 39.59905738 C708.72169375 39.59888532 708.0581224 39.59871326 707.37444282 39.59853599 C701.31384886 39.59697002 695.25325487 39.59553156 689.19266084 39.59424612 C674.12588412 39.5910489 659.05910813 39.58625215 643.99233222 39.58037013 C643.3061817 39.58010354 642.62003118 39.57983696 641.91308822 39.57956229 C608.52592063 39.56645084 575.13877381 39.53491147 541.751621 39.50186843 C530.16377123 39.49041025 518.57592138 39.47903349 506.9880712 39.46799392 C505.91006963 39.4669668 505.91006963 39.4669668 504.81029025 39.46591893 C471.40881534 39.43420564 438.00733687 39.41557288 404.60585086 39.40031994 C402.43772475 39.39932962 400.26959865 39.39833366 398.10147255 39.39733655 C383.73333399 39.39073771 369.36519533 39.38436445 354.99705661 39.37814225 C326.40738759 39.36575935 297.81771926 39.35205092 269.2280513 39.33743201 C267.86649943 39.33673582 266.50494757 39.33604054 265.14339571 39.3353462 C174.54729162 39.28913406 83.95121172 39.20969259 -6.64486337 39.12467116 C-6.71923092 34.51655247 -6.77356731 29.90878602 -6.80965829 25.30020827 C-6.82470959 23.73374009 -6.84515544 22.1673138 -6.87118173 20.60098952 C-6.9077277 18.3444551 -6.92462598 16.08847964 -6.93783212 13.83170241 C-6.95331598 13.13567413 -6.96879983 12.43964584 -6.9847529 11.72252578 C-6.98626094 7.32799377 -6.2661636 4.65689912 -3.64486337 1.12467116 C-2.64486337 0.12467116 -2.64486337 0.12467116 0 0 Z " fill="#BDB8B5" transform="translate(9.644863370805979,1.8753288350999355)"/>
<path d="M0 0 C4 1 4 1 5.75 3.5625 C6.1625 4.366875 6.575 5.17125 7 6 C7.33 4.02 7.66 2.04 8 0 C8.99 0 9.98 0 11 0 C11 4.62 11 9.24 11 14 C7 13 7 13 5.25 10.4375 C4.8375 9.633125 4.425 8.82875 4 8 C3.67 9.98 3.34 11.96 3 14 C2.01 14 1.02 14 0 14 C0 9.38 0 4.76 0 0 Z " fill="#3D3C3B" transform="translate(646,13)"/>
<path d="M0 0 C0.825 0.04125 1.65 0.0825 2.5 0.125 C3.16 0.125 3.82 0.125 4.5 0.125 C5.49 0.125 6.48 0.125 7.5 0.125 C7.5 3.425 7.5 6.725 7.5 10.125 C6.18 9.795 4.86 9.465 3.5 9.125 C3.17 9.455 2.84 9.785 2.5 10.125 C0.0625 10.375 0.0625 10.375 -2.5 10.125 C-4.64915785 6.90126323 -4.88286803 5.85796326 -4.5 2.125 C-2.5 0.125 -2.5 0.125 0 0 Z " fill="#83807E" transform="translate(673.5,16.875)"/>
<path d="M0 0 C0.99 0 1.98 0 3 0 C3.33 0.66 3.66 1.32 4 2 C4.66 1.34 5.32 0.68 6 0 C8.625 -0.125 8.625 -0.125 11 0 C11 0.99 11 1.98 11 3 C9.68 2.67 8.36 2.34 7 2 C7 2.66 7 3.32 7 4 C8.65 4.33 10.3 4.66 12 5 C11.67 6.65 11.34 8.3 11 10 C7.37 10 3.74 10 0 10 C0 6.7 0 3.4 0 0 Z " fill="#343433" transform="translate(851,17)"/>
<path d="M0 0 C0.99 0 1.98 0 3 0 C3 4.62 3 9.24 3 14 C0.69 14 -1.62 14 -4 14 C-6 12 -6 12 -6.25 9 C-6 6 -6 6 -4 4 C-2.68 4 -1.36 4 0 4 C0 2.68 0 1.36 0 0 Z " fill="#575654" transform="translate(875,13)"/>
<path d="M0 0 C0.99 0 1.98 0 3 0 C3 4.62 3 9.24 3 14 C0.69 14 -1.62 14 -4 14 C-6 12 -6 12 -6.25 9 C-6 6 -6 6 -4 4 C-2.68 4 -1.36 4 0 4 C0 2.68 0 1.36 0 0 Z " fill="#575654" transform="translate(606,13)"/>
<path d="M0 0 C2.14576637 -0.02685938 4.29162645 -0.04633088 6.4375 -0.0625 C7.63246094 -0.07410156 8.82742188 -0.08570312 10.05859375 -0.09765625 C13 0 13 0 14 1 C14.07179964 2.51928038 14.08392007 4.04167482 14.0625 5.5625 C14.05347656 6.38878906 14.04445313 7.21507812 14.03515625 8.06640625 C14.02355469 8.70449219 14.01195312 9.34257812 14 10 C13.34 10 12.68 10 12 10 C12 7.69 12 5.38 12 3 C11.01 3 10.02 3 9 3 C9 5.31 9 7.62 9 10 C8.01 10 7.02 10 6 10 C6 7.69 6 5.38 6 3 C5.01 3 4.02 3 3 3 C3 5.31 3 7.62 3 10 C2.01 10 1.02 10 0 10 C0 6.7 0 3.4 0 0 Z " fill="#3B3A39" transform="translate(772,17)"/>
<path d="M0 0 C1.134375 0.020625 2.26875 0.04125 3.4375 0.0625 C3.49139087 2.02053507 3.53024217 3.97898909 3.5625 5.9375 C3.58570313 7.02804688 3.60890625 8.11859375 3.6328125 9.2421875 C3.4375 12.0625 3.4375 12.0625 1.4375 14.0625 C-1.1875 14.1875 -1.1875 14.1875 -3.5625 14.0625 C-3.5625 13.0725 -3.5625 12.0825 -3.5625 11.0625 C-2.2425 10.7325 -0.9225 10.4025 0.4375 10.0625 C-2.0375 9.0725 -2.0375 9.0725 -4.5625 8.0625 C-4.60491723 5.72955225 -4.60342937 3.39547433 -4.5625 1.0625 C-3.5625 0.0625 -3.5625 0.0625 0 0 Z " fill="#373736" transform="translate(921.5625,16.9375)"/>
<path d="M0 0 C0.99 0 1.98 0 3 0 C3.67260351 1.76858691 4.33788395 3.53996016 5 5.3125 C5.37125 6.29863281 5.7425 7.28476562 6.125 8.30078125 C7 11 7 11 7 14 C6.01 14 5.02 14 4 14 C4 13.34 4 12.68 4 12 C2.35 12 0.7 12 -1 12 C-1 12.66 -1 13.32 -1 14 C-1.99 14 -2.98 14 -4 14 C-3.00956295 9.16371695 -2.04301154 4.52381127 0 0 Z " fill="#3C3C3A" transform="translate(898,13)"/>
<path d="M0 0 C0.99 0 1.98 0 3 0 C3 0.99 3 1.98 3 3 C4.98 3 6.96 3 9 3 C9 6.3 9 9.6 9 13 C6.66705225 13.04241723 4.33297433 13.04092937 2 13 C0.18884044 11.18884044 0.61800552 8.38721773 0.4375 5.9375 C0.35371094 4.83277344 0.26992188 3.72804688 0.18359375 2.58984375 C0.09271484 1.30787109 0.09271484 1.30787109 0 0 Z " fill="#767371" transform="translate(819,14)"/>
<path d="M0 0 C0.99 0 1.98 0 3 0 C3 4.62 3 9.24 3 14 C1.02 14 -0.96 14 -3 14 C-5 12 -5 12 -5.125 8.375 C-5.08375 7.26125 -5.0425 6.1475 -5 5 C-3.35 4.67 -1.7 4.34 0 4 C0 2.68 0 1.36 0 0 Z " fill="#313130" transform="translate(730,13)"/>
<path d="M0 0 C0.99 0 1.98 0 3 0 C3 4.62 3 9.24 3 14 C1.02 14 -0.96 14 -3 14 C-5 12 -5 12 -5.125 8.375 C-5.08375 7.26125 -5.0425 6.1475 -5 5 C-3.35 4.67 -1.7 4.34 0 4 C0 2.68 0 1.36 0 0 Z " fill="#313130" transform="translate(626,13)"/>
<path d="M0 0 C0.66 0 1.32 0 2 0 C2 0.99 2 1.98 2 3 C2.804375 2.979375 3.60875 2.95875 4.4375 2.9375 C7 3 7 3 8 4 C8.23728814 10.52542373 8.23728814 10.52542373 7 13 C4.69 13 2.38 13 0 13 C0 8.71 0 4.42 0 0 Z " fill="#595856" transform="translate(789,14)"/>
<path d="M0 0 C0.78375 0.04125 1.5675 0.0825 2.375 0.125 C2.705 1.115 3.035 2.105 3.375 3.125 C1.725 3.125 0.075 3.125 -1.625 3.125 C-0.23304085 5.9089183 1.53075779 6.10398997 4.375 7.125 C4.5 9.5 4.5 9.5 4.375 12.125 C2.375 14.125 2.375 14.125 -0.75 14.25 C-2.173125 14.188125 -2.173125 14.188125 -3.625 14.125 C-3.955 13.135 -4.285 12.145 -4.625 11.125 C-2.645 11.125 -0.665 11.125 1.375 11.125 C-0.01695915 8.3410817 -1.78075779 8.14601003 -4.625 7.125 C-4.75 4.75 -4.75 4.75 -4.625 2.125 C-2.625 0.125 -2.625 0.125 0 0 Z " fill="#3B3A39" transform="translate(559.625,12.875)"/>
<path d="M0 0 C2.4375 0.9375 2.4375 0.9375 3.75 3 C4.0903125 3.9590625 4.0903125 3.9590625 4.4375 4.9375 C1.4675 4.4425 1.4675 4.4425 -1.5625 3.9375 C-1.8925 6.2475 -2.2225 8.5575 -2.5625 10.9375 C0.9025 10.4425 0.9025 10.4425 4.4375 9.9375 C4.1075 10.9275 3.7775 11.9175 3.4375 12.9375 C0.0625 13.5625 0.0625 13.5625 -3.5625 13.9375 C-5.97736943 11.52263057 -5.8586925 10.81042211 -5.875 7.5 C-5.89175781 6.71753906 -5.90851562 5.93507813 -5.92578125 5.12890625 C-5.31217635 1.42748314 -3.74218315 -0.09127276 0 0 Z " fill="#373735" transform="translate(755.5625,13.0625)"/>
<path d="M0 0 C2.5625 0.1875 2.5625 0.1875 4.5625 2.1875 C4.8125 5.1875 4.8125 5.1875 4.5625 8.1875 C2.5625 10.1875 2.5625 10.1875 0 10.375 C-2.4375 10.1875 -2.4375 10.1875 -3.4375 9.1875 C-3.5703125 7.375 -3.5703125 7.375 -3.5625 5.1875 C-3.56507813 4.465625 -3.56765625 3.74375 -3.5703125 3 C-3.36228014 0.16097012 -2.84416607 0.21878201 0 0 Z " fill="#353534" transform="translate(931.4375,16.8125)"/>
<path d="M0 0 C2.5625 0.1875 2.5625 0.1875 4.5625 2.1875 C4.8125 5.1875 4.8125 5.1875 4.5625 8.1875 C2.5625 10.1875 2.5625 10.1875 0 10.375 C-2.4375 10.1875 -2.4375 10.1875 -3.4375 9.1875 C-3.5703125 7.375 -3.5703125 7.375 -3.5625 5.1875 C-3.56507813 4.465625 -3.56765625 3.74375 -3.5703125 3 C-3.36228014 0.16097012 -2.84416607 0.21878201 0 0 Z " fill="#353534" transform="translate(687.4375,16.8125)"/>
<path d="M0 0 C2.5625 0.1875 2.5625 0.1875 4.5625 2.1875 C4.5625 3.5075 4.5625 4.8275 4.5625 6.1875 C3.5725 6.5175 2.5825 6.8475 1.5625 7.1875 C2.5525 7.5175 3.5425 7.8475 4.5625 8.1875 C2.5625 10.1875 2.5625 10.1875 0.0625 10.4375 C-2.4375 10.1875 -2.4375 10.1875 -4.4375 8.1875 C-3.74456522 0.28804348 -3.74456522 0.28804348 0 0 Z " fill="#444341" transform="translate(739.4375,16.8125)"/>
<path d="M0 0 C2.5625 0.1875 2.5625 0.1875 4.5625 2.1875 C4.5625 3.5075 4.5625 4.8275 4.5625 6.1875 C3.5725 6.5175 2.5825 6.8475 1.5625 7.1875 C2.5525 7.5175 3.5425 7.8475 4.5625 8.1875 C2.5625 10.1875 2.5625 10.1875 0.0625 10.4375 C-2.4375 10.1875 -2.4375 10.1875 -4.4375 8.1875 C-3.74456522 0.28804348 -3.74456522 0.28804348 0 0 Z " fill="#444341" transform="translate(635.4375,16.8125)"/>
<path d="M0 0 C4.55555556 0.55555556 4.55555556 0.55555556 6 2 C6.1875 4.9375 6.1875 4.9375 6 8 C5.34 8.66 4.68 9.32 4 10 C-0.55555556 9.44444444 -0.55555556 9.44444444 -2 8 C-2.1875 5.0625 -2.1875 5.0625 -2 2 C-1.34 1.34 -0.68 0.68 0 0 Z " fill="#2D2D2C" transform="translate(764,17)"/>
<path d="M0 0 C4.55555556 0.55555556 4.55555556 0.55555556 6 2 C6.1875 4.9375 6.1875 4.9375 6 8 C5.34 8.66 4.68 9.32 4 10 C-0.55555556 9.44444444 -0.55555556 9.44444444 -2 8 C-2.1875 5.0625 -2.1875 5.0625 -2 2 C-1.34 1.34 -0.68 0.68 0 0 Z " fill="#2D2D2C" transform="translate(568,17)"/>
<path d="M0 0 C3.375 -0.125 3.375 -0.125 7 0 C9 2 9 2 9.1953125 3.9453125 C9.13020833 5.96354167 9.06510417 7.98177083 9 10 C8.01 10 7.02 10 6 10 C6 7.69 6 5.38 6 3 C5.01 3 4.02 3 3 3 C3 5.31 3 7.62 3 10 C2.01 10 1.02 10 0 10 C0 6.7 0 3.4 0 0 Z " fill="#3D3C3B" transform="translate(694,17)"/>
<path d="M0 0 C2.31 0.33 4.62 0.66 7 1 C7 3.97 7 6.94 7 10 C4.69 10 2.38 10 0 10 C-0.33 8.35 -0.66 6.7 -1 5 C0.65 4.34 2.3 3.68 4 3 C2.68 3 1.36 3 0 3 C0 2.01 0 1.02 0 0 Z " fill="#343433" transform="translate(705,17)"/>
<path d="M0 0 C2.31 0.33 4.62 0.66 7 1 C7 3.97 7 6.94 7 10 C4.69 10 2.38 10 0 10 C-0.33 8.35 -0.66 6.7 -1 5 C0.65 4.34 2.3 3.68 4 3 C2.68 3 1.36 3 0 3 C0 2.01 0 1.02 0 0 Z " fill="#343433" transform="translate(660,17)"/>
<path d="M0 0 C2.375 -0.125 2.375 -0.125 5 0 C7 2 7 2 7.1953125 3.9453125 C7.13020833 5.96354167 7.06510417 7.98177083 7 10 C4.69 10 2.38 10 0 10 C-0.33 8.35 -0.66 6.7 -1 5 C0.65 4.67 2.3 4.34 4 4 C4 3.34 4 2.68 4 2 C2.68 2.33 1.36 2.66 0 3 C0 2.01 0 1.02 0 0 Z " fill="#3D3C3B" transform="translate(945,17)"/>
<path d="M0 0 C2.375 -0.125 2.375 -0.125 5 0 C7 2 7 2 7.1953125 3.9453125 C7.13020833 5.96354167 7.06510417 7.98177083 7 10 C4.69 10 2.38 10 0 10 C-0.33 8.35 -0.66 6.7 -1 5 C0.65 4.67 2.3 4.34 4 4 C4 3.34 4 2.68 4 2 C2.68 2.33 1.36 2.66 0 3 C0 2.01 0 1.02 0 0 Z " fill="#3D3C3B" transform="translate(612,17)"/>
<path d="M0 0 C3.125 0.375 3.125 0.375 6 1 C6 2.65 6 4.3 6 6 C4.35 6 2.7 6 1 6 C1 6.66 1 7.32 1 8 C2.32 7.67 3.64 7.34 5 7 C5 7.99 5 8.98 5 10 C2.625 10.125 2.625 10.125 0 10 C-2 8 -2 8 -2.25 5 C-2 2 -2 2 0 0 Z " fill="#464644" transform="translate(882,17)"/>
<path d="M0 0 C3.125 0.375 3.125 0.375 6 1 C6 2.65 6 4.3 6 6 C4.35 6 2.7 6 1 6 C1 6.66 1 7.32 1 8 C2.32 7.67 3.64 7.34 5 7 C5 7.99 5 8.98 5 10 C2.625 10.125 2.625 10.125 0 10 C-2 8 -2 8 -2.25 5 C-2 2 -2 2 0 0 Z " fill="#464644" transform="translate(842,17)"/>
<path d="M0 0 C3.125 0.375 3.125 0.375 6 1 C6 2.65 6 4.3 6 6 C4.35 6 2.7 6 1 6 C1 6.66 1 7.32 1 8 C2.32 7.67 3.64 7.34 5 7 C5 7.99 5 8.98 5 10 C2.625 10.125 2.625 10.125 0 10 C-2 8 -2 8 -2.25 5 C-2 2 -2 2 0 0 Z " fill="#464644" transform="translate(592,17)"/>
<path d="M0 0 C2.33294775 -0.04241723 4.66702567 -0.04092937 7 0 C8 1 8 1 8.09765625 3.06640625 C8.08605469 3.89011719 8.07445312 4.71382812 8.0625 5.5625 C8.05347656 6.38878906 8.04445313 7.21507812 8.03515625 8.06640625 C8.02355469 8.70449219 8.01195312 9.34257812 8 10 C7.01 10 6.02 10 5 10 C5 7.69 5 5.38 5 3 C4.01 3 3.02 3 2 3 C2 5.31 2 7.62 2 10 C1.34 10 0.68 10 0 10 C0 6.7 0 3.4 0 0 Z " fill="#403F3E" transform="translate(907,17)"/>
<path d="M0 0 C0.99 0 1.98 0 3 0 C3 2.31 3 4.62 3 7 C3.99 7 4.98 7 6 7 C6 4.69 6 2.38 6 0 C6.66 0 7.32 0 8 0 C8 3.3 8 6.6 8 10 C5.125 10.125 5.125 10.125 2 10 C0 8 0 8 -0.1953125 6.0546875 C-0.13020833 4.03645833 -0.06510417 2.01822917 0 0 Z " fill="#3D3C3B" transform="translate(799,17)"/>
<path d="M0 0 C1.65 0 3.3 0 5 0 C5 0.99 5 1.98 5 3 C3.68 2.67 2.36 2.34 1 2 C1 2.66 1 3.32 1 4 C2.65 4.33 4.3 4.66 6 5 C5.67 6.65 5.34 8.3 5 10 C3.02 10 1.04 10 -1 10 C-1 9.01 -1 8.02 -1 7 C0.98 7.495 0.98 7.495 3 8 C3 7.34 3 6.68 3 6 C1.68 5.67 0.36 5.34 -1 5 C-0.67 3.35 -0.34 1.7 0 0 Z " fill="#343433" transform="translate(811,17)"/>
<path d="M0 0 C0.78375 0.04125 1.5675 0.0825 2.375 0.125 C2.375 1.115 2.375 2.105 2.375 3.125 C1.055 3.125 -0.265 3.125 -1.625 3.125 C-1.625 4.445 -1.625 5.765 -1.625 7.125 C0.025 7.455 1.675 7.785 3.375 8.125 C3.045 8.785 2.715 9.445 2.375 10.125 C0 10.3125 0 10.3125 -2.625 10.125 C-4.77415785 6.90126323 -5.00786803 5.85796326 -4.625 2.125 C-2.625 0.125 -2.625 0.125 0 0 Z " fill="#40403E" transform="translate(673.625,16.875)"/>
<path d="M0 0 C0.99 0 1.98 0 3 0 C4.01866229 1.65532623 5.01810813 3.32260138 6 5 C6.99 5.33 7.98 5.66 9 6 C9 6.66 9 7.32 9 8 C8.2575 8.144375 7.515 8.28875 6.75 8.4375 C4.48735322 8.90031411 2.2405393 9.43986518 0 10 C0 6.7 0 3.4 0 0 Z " fill="#696765" transform="translate(851,17)"/>
<path d="M0 0 C0.78375 0.04125 1.5675 0.0825 2.375 0.125 C2.375 1.115 2.375 2.105 2.375 3.125 C1.385 3.125 0.395 3.125 -0.625 3.125 C-0.955 4.445 -1.285 5.765 -1.625 7.125 C-0.305 7.125 1.015 7.125 2.375 7.125 C2.375 8.115 2.375 9.105 2.375 10.125 C0 10.25 0 10.25 -2.625 10.125 C-4.625 8.125 -4.625 8.125 -4.875 5.125 C-4.55416156 1.2749387 -3.94115238 0.18767392 0 0 Z " fill="#3A3938" transform="translate(580.625,16.875)"/>
<path d="M0 0 C0.99 0 1.98 0 3 0 C3.66 0.99 4.32 1.98 5 3 C5.33 2.01 5.66 1.02 6 0 C6.99 0 7.98 0 9 0 C8.01 3.3 7.02 6.6 6 10 C5.01 10 4.02 10 3 10 C2.01 6.7 1.02 3.4 0 0 Z " fill="#353534" transform="translate(830,17)"/>
<path d="M0 0 C0.99 0 1.98 0 3 0 C3.66 2.31 4.32 4.62 5 7 C4.34 7 3.68 7 3 7 C3 7.99 3 8.98 3 10 C2.01 10 1.02 10 0 10 C-1.60339848 6.88228073 -2.18974141 5.60988311 -1.125 2.1875 C-0.75375 1.465625 -0.3825 0.74375 0 0 Z " fill="#504F4D" transform="translate(898,13)"/>
<path d="M0 0 C0.99 0 1.98 0 3 0 C3 0.99 3 1.98 3 3 C3.66 3 4.32 3 5 3 C5 3.66 5 4.32 5 5 C4.34 5 3.68 5 3 5 C3 6.98 3 8.96 3 11 C3.66 11 4.32 11 5 11 C5 11.66 5 12.32 5 13 C3.68 12.67 2.36 12.34 1 12 C0.67 8.04 0.34 4.08 0 0 Z " fill="#3A3938" transform="translate(819,14)"/>
<path d="M0 0 C2.4375 0.1875 2.4375 0.1875 5 1 C6.3125 3.0625 6.3125 3.0625 7 5 C4.03 4.505 4.03 4.505 1 4 C0.67 5.65 0.34 7.3 0 9 C-0.33 7.68 -0.66 6.36 -1 5 C-1.66 5 -2.32 5 -3 5 C-1.125 1.125 -1.125 1.125 0 0 Z " fill="#454443" transform="translate(753,13)"/>
<path d="M0 0 C0.66 0 1.32 0 2 0 C2 0.99 2 1.98 2 3 C2.99 3.33 3.98 3.66 5 4 C4.34 4.66 3.68 5.32 3 6 C3.32198966 9.09926819 3.32198966 9.09926819 4 12 C2.68 12.33 1.36 12.66 0 13 C0 8.71 0 4.42 0 0 Z " fill="#2C2C2B" transform="translate(789,14)"/>
<path d="M0 0 C0.99 0.33 1.98 0.66 3 1 C2.34 1 1.68 1 1 1 C0.67 4.63 0.34 8.26 0 12 C-3 11 -3 11 -5 8 C-4.625 5.8125 -4.625 5.8125 -4 4 C-2.68 4 -1.36 4 0 4 C0 2.68 0 1.36 0 0 Z " fill="#726F6D" transform="translate(730,13)"/>
<path d="M0 0 C0.99 0.33 1.98 0.66 3 1 C2.34 1 1.68 1 1 1 C0.67 4.63 0.34 8.26 0 12 C-3 11 -3 11 -5 8 C-4.625 5.8125 -4.625 5.8125 -4 4 C-2.68 4 -1.36 4 0 4 C0 2.68 0 1.36 0 0 Z " fill="#726F6D" transform="translate(626,13)"/>
<path d="M0 0 C0.33 0 0.66 0 1 0 C1 1.98 1 3.96 1 6 C-0.98 6.99 -0.98 6.99 -3 8 C-5 5 -5 5 -5 1 C-3.68 1.33 -2.36 1.66 -1 2 C-0.67 1.34 -0.34 0.68 0 0 Z " fill="#726F6D" transform="translate(935,19)"/>
<path d="M0 0 C0.33 0 0.66 0 1 0 C1 1.98 1 3.96 1 6 C-0.98 6.99 -0.98 6.99 -3 8 C-5 5 -5 5 -5 1 C-3.68 1.33 -2.36 1.66 -1 2 C-0.67 1.34 -0.34 0.68 0 0 Z " fill="#726F6D" transform="translate(691,19)"/>
<path d="M0 0 C0.99 0 1.98 0 3 0 C3 3.3 3 6.6 3 10 C2.01 10 1.02 10 0 10 C0 6.7 0 3.4 0 0 Z " fill="#3C3B3A" transform="translate(585,17)"/>
<path d="M0 0 C0.66 0 1.32 0 2 0 C2.06058594 0.68707031 2.12117187 1.37414063 2.18359375 2.08203125 C2.26738281 2.98308594 2.35117187 3.88414063 2.4375 4.8125 C2.51871094 5.70582031 2.59992187 6.59914063 2.68359375 7.51953125 C2.93489767 10.12743559 2.93489767 10.12743559 4 13 C2.68 12.67 1.36 12.34 0 12 C0 8.04 0 4.08 0 0 Z " fill="#2E2E2C" transform="translate(938,14)"/>
<path d="M0 0 C0.66 0 1.32 0 2 0 C2.06058594 0.68707031 2.12117187 1.37414063 2.18359375 2.08203125 C2.26738281 2.98308594 2.35117187 3.88414063 2.4375 4.8125 C2.51871094 5.70582031 2.59992187 6.59914063 2.68359375 7.51953125 C2.93489767 10.12743559 2.93489767 10.12743559 4 13 C2.68 12.67 1.36 12.34 0 12 C0 8.04 0 4.08 0 0 Z " fill="#2E2E2C" transform="translate(715,14)"/>
<path d="M0 0 C3 2 3 2 4 5 C4.99 5.33 5.98 5.66 7 6 C7 6.66 7 7.32 7 8 C5.824375 8.2165625 5.824375 8.2165625 4.625 8.4375 C2.03578982 8.87798925 2.03578982 8.87798925 0 10 C0 6.7 0 3.4 0 0 Z " fill="#938F8D" transform="translate(807,17)"/>
<path d="M0 0 C1.32 0.66 2.64 1.32 4 2 C3.34 2 2.68 2 2 2 C2 2.99 2 3.98 2 5 C3.32 4.67 4.64 4.34 6 4 C6 4.99 6 5.98 6 7 C3.625 7.125 3.625 7.125 1 7 C0.34 6.34 -0.32 5.68 -1 5 C-0.625 2.375 -0.625 2.375 0 0 Z " fill="#313130" transform="translate(881,20)"/>
<path d="M0 0 C1.32 0.66 2.64 1.32 4 2 C3.34 2 2.68 2 2 2 C2 2.99 2 3.98 2 5 C3.32 4.67 4.64 4.34 6 4 C6 4.99 6 5.98 6 7 C3.625 7.125 3.625 7.125 1 7 C0.34 6.34 -0.32 5.68 -1 5 C-0.625 2.375 -0.625 2.375 0 0 Z " fill="#313130" transform="translate(841,20)"/>
<path d="M0 0 C1.32 0.66 2.64 1.32 4 2 C3.34 2 2.68 2 2 2 C2 2.99 2 3.98 2 5 C3.32 4.67 4.64 4.34 6 4 C6 4.99 6 5.98 6 7 C3.625 7.125 3.625 7.125 1 7 C0.34 6.34 -0.32 5.68 -1 5 C-0.625 2.375 -0.625 2.375 0 0 Z " fill="#313130" transform="translate(591,20)"/>
<path d="M0 0 C2 1 2 1 4 3 C4 4.32 4 5.64 4 7 C2.68 7 1.36 7 0 7 C-0.66 5.35 -1.32 3.7 -2 2 C-1.34 1.34 -0.68 0.68 0 0 Z " fill="#747270" transform="translate(764,17)"/>
<path d="M0 0 C2 1 2 1 4 3 C4 4.32 4 5.64 4 7 C2.68 7 1.36 7 0 7 C-0.66 5.35 -1.32 3.7 -2 2 C-1.34 1.34 -0.68 0.68 0 0 Z " fill="#747270" transform="translate(568,17)"/>
<path d="M0 0 C1.65 0 3.3 0 5 0 C4.67 2.31 4.34 4.62 4 7 C1 6 1 6 -1 4 C-0.625 1.875 -0.625 1.875 0 0 Z " fill="#6D6B69" transform="translate(918,17)"/>
<path d="M0 0 C0.99 0.33 1.98 0.66 3 1 C3 3.97 3 6.94 3 10 C2.34 10 1.68 10 1 10 C1 7.69 1 5.38 1 3 C0.01 2.67 -0.98 2.34 -2 2 C-1.34 1.34 -0.68 0.68 0 0 Z " fill="#353433" transform="translate(783,17)"/>
<path d="M0 0 C0.185625 0.9590625 0.185625 0.9590625 0.375 1.9375 C0.684375 2.9584375 0.684375 2.9584375 1 4 C1.66 4.33 2.32 4.66 3 5 C2.01 5 1.02 5 0 5 C0 5.99 0 6.98 0 8 C-0.99 8 -1.98 8 -3 8 C-2.25 2.25 -2.25 2.25 0 0 Z " fill="#333332" transform="translate(897,19)"/>
<path d="M0 0 C0.33 0 0.66 0 1 0 C1 4.29 1 8.58 1 13 C0.01 12.67 -0.98 12.34 -2 12 C-1.34 8.04 -0.68 4.08 0 0 Z " fill="#2C2C2B" transform="translate(876,14)"/>
<path d="M0 0 C0.66 0 1.32 0 2 0 C2 3.3 2 6.6 2 10 C0.68 9.34 -0.64 8.68 -2 8 C-1.67 7.67 -1.34 7.34 -1 7 C-0.63239269 4.67182036 -0.29758419 2.3381615 0 0 Z " fill="#2B2B2A" transform="translate(805,17)"/>
<path d="M0 0 C0.33 0 0.66 0 1 0 C1 4.29 1 8.58 1 13 C0.01 12.67 -0.98 12.34 -2 12 C-1.34 8.04 -0.68 4.08 0 0 Z " fill="#2C2C2B" transform="translate(607,14)"/>
<path d="M0 0 C1.65 0.33 3.3 0.66 5 1 C4.67 1.99 4.34 2.98 4 4 C2.35 4.33 0.7 4.66 -1 5 C-0.67 3.35 -0.34 1.7 0 0 Z " fill="#555452" transform="translate(705,21)"/>
<path d="M0 0 C1.65 0.33 3.3 0.66 5 1 C4.67 1.99 4.34 2.98 4 4 C2.35 4.33 0.7 4.66 -1 5 C-0.67 3.35 -0.34 1.7 0 0 Z " fill="#555452" transform="translate(660,21)"/>
<path d="M0 0 C0.99 0.33 1.98 0.66 3 1 C2.67 3.97 2.34 6.94 2 10 C1.34 10 0.68 10 0 10 C0 6.7 0 3.4 0 0 Z " fill="#2B2B2A" transform="translate(907,17)"/>
<path d="M0 0 C0.78375 0.04125 1.5675 0.0825 2.375 0.125 C2.375 1.115 2.375 2.105 2.375 3.125 C1.385 3.125 0.395 3.125 -0.625 3.125 C-1.285 4.445 -1.945 5.765 -2.625 7.125 C-3.285 5.475 -3.945 3.825 -4.625 2.125 C-2.625 0.125 -2.625 0.125 0 0 Z " fill="#434241" transform="translate(580.625,16.875)"/>
<path d="M0 0 C0.33 1.32 0.66 2.64 1 4 C1.99 4 2.98 4 4 4 C4.33 4.99 4.66 5.98 5 7 C3.35 6.67 1.7 6.34 0 6 C-0.38218767 4.34385343 -0.71395102 2.67542976 -1 1 C-0.67 0.67 -0.34 0.34 0 0 Z " fill="#353534" transform="translate(763,20)"/>
<path d="M0 0 C0.33 1.32 0.66 2.64 1 4 C1.99 4 2.98 4 4 4 C4.33 4.99 4.66 5.98 5 7 C3.35 6.67 1.7 6.34 0 6 C-0.38218767 4.34385343 -0.71395102 2.67542976 -1 1 C-0.67 0.67 -0.34 0.34 0 0 Z " fill="#353534" transform="translate(567,20)"/>
<path d="M0 0 C1.67542976 0.28604898 3.34385343 0.61781233 5 1 C5.33 1.99 5.66 2.98 6 4 C3.03824877 3.38722388 1.61941217 2.74627478 -1 1 C-0.67 0.67 -0.34 0.34 0 0 Z " fill="#383836" transform="translate(754,14)"/>
</svg>
