<?xml version="1.0" encoding="UTF-8"?>
<svg version="1.1" xmlns="http://www.w3.org/2000/svg" width="966" height="162">
<path d="M0 0 C1.30483269 -0.00346153 2.60966537 -0.00692307 3.95403844 -0.01048949 C7.56702052 -0.01965439 11.17974745 -0.01020683 14.79271043 0.00234491 C18.72653559 0.01268148 22.66033586 0.00552867 26.59416616 0.00061244 C33.48555178 -0.00560019 40.37685959 -0.00069216 47.26823616 0.01152706 C57.51541608 0.02964599 67.76254704 0.03053319 78.00974006 0.0279011 C95.24783933 0.02396082 112.48590408 0.03397821 129.7239933 0.05195332 C146.7915991 0.06970502 163.85919053 0.08125128 180.9268055 0.08451176 C182.51868685 0.08482109 182.51868685 0.08482109 184.14272743 0.08513666 C189.53231223 0.08615166 194.92189705 0.08705581 200.31148188 0.08791729 C238.48483709 0.09421834 276.65817353 0.11442993 314.83151817 0.14282513 C351.91615257 0.17037865 389.00078184 0.19162938 426.08542442 0.20434856 C427.22855599 0.20474314 428.37168756 0.20513772 429.54945947 0.20554426 C441.02926758 0.20949982 452.50907573 0.21332726 463.98888391 0.21706083 C487.37452911 0.22466945 510.76017399 0.23313321 534.14581871 0.24211407 C535.75866613 0.24273187 535.75866613 0.24273187 537.40409633 0.24336216 C609.20494397 0.27096366 681.0057812 0.3184992 752.80661583 0.36914349 C752.90026318 17.38978899 752.97069458 34.41035352 753.01386452 51.43119812 C753.03444629 59.33516166 753.06248239 67.23896466 753.10837364 75.14282513 C753.1483764 82.03582456 753.17408048 88.92870766 753.18296981 95.82181996 C753.18816198 99.46811026 753.2002724 103.11406789 753.22953606 106.76025105 C753.26202153 110.8413732 753.26256669 114.92192548 753.26071739 119.00317669 C753.2750985 120.19792614 753.2894796 121.39267559 753.30429649 122.62362957 C753.25715728 132.27486583 751.4499259 141.37107587 744.80661583 148.74414349 C744.14661583 149.51500286 743.48661583 150.28586224 742.80661583 151.08008099 C734.10628058 157.71861804 724.99093741 159.10096699 714.32028389 158.98438263 C713.00807839 158.99015185 711.6958729 158.99592107 710.3439036 159.00186512 C706.7194053 159.01710368 703.09561628 159.00142602 699.47117123 158.98047445 C695.5215508 158.96321562 691.57199809 158.97517402 687.62236333 158.9833619 C680.70631477 158.99370673 673.79048177 158.98555286 666.87445831 158.96517086 C656.59069223 158.93494827 646.30706154 158.93349622 636.02325914 158.9378808 C618.72286178 158.94444498 601.42256002 158.92776356 584.12219048 158.89779377 C566.99483072 158.8681998 549.86751079 158.84896225 532.74012566 158.8435297 C531.14221196 158.84301415 531.14221196 158.84301415 529.51201718 158.84248819 C524.10193018 158.84079651 518.69184315 158.83928959 513.28175607 158.83785381 C474.97084239 158.8273542 436.6599807 158.79367424 398.3490963 158.74634075 C361.13262776 158.70041253 323.91617344 158.66499743 286.69968224 158.64380169 C284.97865621 158.64281524 284.97865621 158.64281524 283.22286199 158.64180887 C271.70060299 158.63521622 260.17834388 158.62883716 248.65608467 158.62261457 C225.18430866 158.6099338 201.71253356 158.59582754 178.2407589 158.58085918 C177.16158539 158.58017273 176.08241189 158.57948628 174.97053616 158.57877903 C102.91587443 158.53278251 30.86124153 158.45355729 -41.19338417 158.36914349 C-41.26359834 141.59197671 -41.31643294 124.81485792 -41.34882069 108.03757954 C-41.36426145 100.24684633 -41.3852973 92.45620465 -41.41970253 84.6655302 C-41.44969068 77.87179035 -41.46897944 71.07811681 -41.47564965 64.28431261 C-41.47954605 60.69009618 -41.48864417 57.09606941 -41.51057434 53.50191402 C-41.53491023 49.48052237 -41.53534815 45.45945628 -41.53396034 41.43799114 C-41.54474617 40.25834789 -41.555532 39.07870464 -41.56664467 37.86331463 C-41.52650171 27.08206363 -39.4466822 17.63600281 -32.19338417 9.36914349 C-22.77937103 1.10933885 -12.106961 -0.07933712 0 0 Z " fill="#F5CF1C" transform="translate(42.19338417053223,1.6308565139770508)"/>
<path d="M0 0 C1.26942444 -0.00043808 2.53884888 -0.00087616 3.84674072 -0.00132751 C7.29658245 -0.00218143 10.74610549 0.01534518 14.19587374 0.03639436 C17.8126437 0.05526297 21.42942254 0.05691956 25.04623413 0.06047058 C31.88125256 0.06976135 38.71612549 0.09433448 45.55108011 0.12451905 C53.33832583 0.15815602 61.12557883 0.17457234 68.91287923 0.18960536 C84.91905427 0.22088704 100.92508447 0.27358913 116.93115234 0.34057617 C117.00136455 17.24812568 117.05420016 34.15562941 117.08658886 51.06329155 C117.10203004 58.91455852 117.12306668 66.76573469 117.1574707 74.61694336 C117.18745758 81.46342092 117.20674731 88.30983268 117.21341783 95.1563741 C117.21731443 98.77853554 117.22641394 102.40050882 117.24834251 106.02260971 C117.27267584 110.07513375 117.27311641 114.1273347 117.27172852 118.17993164 C117.28251434 119.36892563 117.29330017 120.55791962 117.30441284 121.78294373 C117.26477948 132.50819625 115.48925094 141.38918286 107.93115234 149.34057617 C98.96649589 157.68111098 89.69849744 158.78799535 77.79223633 158.68115234 C75.859058 158.68180946 75.859058 158.68180946 73.88682556 158.68247986 C70.37907778 158.68333504 66.87164236 158.66578761 63.3639667 158.64475799 C59.68846676 158.62591076 56.01295841 158.62423444 52.3374176 158.62068176 C45.38903603 158.61138479 38.44079731 158.58680311 31.49247843 158.55663329 C23.57708382 158.52301583 15.66168213 158.50658487 7.74623382 158.49154699 C-8.52554341 158.46025122 -24.79717726 158.40753684 -41.06884766 158.34057617 C-41.13906182 141.5634094 -41.19189642 124.78629061 -41.22428417 108.00901222 C-41.23972494 100.21827902 -41.26076079 92.42763734 -41.29516602 84.63696289 C-41.32515416 77.84322304 -41.34444292 71.0495495 -41.35111314 64.25574529 C-41.35500953 60.66152887 -41.36410765 57.0675021 -41.38603783 53.47334671 C-41.41037371 49.45195506 -41.41081164 45.43088897 -41.40942383 41.40942383 C-41.42020966 40.22978058 -41.43099548 39.05013733 -41.44210815 37.83474731 C-41.4019652 27.05349632 -39.32214569 17.6074355 -32.06884766 9.34057617 C-22.68968009 1.11134486 -12.06693561 -0.11033157 0 0 Z " fill="#F6CF1D" transform="translate(846.06884765625,1.659423828125)"/>
<path d="M0 0 C1.51242531 0.00636726 1.51242531 0.00636726 3.05540466 0.01286316 C6.24425091 0.02952192 9.43244175 0.06714998 12.62109375 0.10546875 C14.79621477 0.12053214 16.97134579 0.13421763 19.14648438 0.14648438 C24.45074068 0.17938327 29.75462037 0.229453 35.05859375 0.29296875 C35.10265756 1.89037602 35.1340732 3.48813549 35.16015625 5.0859375 C35.17900879 5.97563232 35.19786133 6.86532715 35.21728516 7.78198242 C34.93665528 12.22241047 32.67222425 14.77813195 29.52734375 17.73046875 C25.13187029 21.52264193 22.88463683 22.40960912 17.16796875 22.46875 C15.98332031 22.49259766 14.79867187 22.51644531 13.578125 22.54101562 C11.08089867 22.58371431 8.5834515 22.61511048 6.0859375 22.63476562 C-2.7791272 22.70860302 -2.7791272 22.70860302 -9.94140625 27.29296875 C-11.9250758 30.1519538 -12.19293303 32.41548464 -12.12890625 35.85546875 C-12.12246094 36.61988281 -12.11601562 37.38429687 -12.109375 38.171875 C-12.0119413 40.48194591 -12.0119413 40.48194591 -10.94140625 43.29296875 C-17.85508283 43.04605173 -22.0113259 41.20118622 -26.94140625 36.29296875 C-30.99786502 30.76355953 -32.78765176 25.13651943 -31.94140625 18.29296875 C-30.00256044 11.79721781 -25.65723617 6.83732168 -19.94140625 3.29296875 C-13.27331723 0.3856062 -7.20421609 -0.11622813 0 0 Z " fill="#282522" transform="translate(158.94140625,44.70703125)"/>
<path d="M0 0 C6.79785941 0.89404954 11.4375164 2.76378177 16 8 C20.10790866 13.67603304 19.71207423 19.23938719 19 26 C17.50740857 31.80139312 14.19626054 35.15739844 9.48828125 38.67578125 C2.20612901 42.55121235 -4.56236278 43.42769213 -12.72265625 43.29296875 C-13.70874374 43.28872391 -14.69483124 43.28447906 -15.71080017 43.28010559 C-18.82832349 43.26345171 -21.9451755 43.2258248 -25.0625 43.1875 C-27.18944372 43.17243597 -29.31639768 43.15875059 -31.44335938 43.14648438 C-36.62916082 43.11359182 -41.814467 43.0619026 -47 43 C-47.07308571 41.26105104 -47.12492753 39.52120186 -47.16796875 37.78125 C-47.21473755 36.3281543 -47.21473755 36.3281543 -47.26245117 34.84570312 C-46.8330068 30.18932769 -44.37256181 27.10187897 -41 24 C-37.21793389 21.33515638 -34.64173965 20.62561694 -30.03515625 20.59375 C-28.90529297 20.57183594 -27.77542969 20.54992187 -26.61132812 20.52734375 C-25.44021484 20.51832031 -24.26910156 20.50929688 -23.0625 20.5 C-13.03312015 20.75443072 -13.03312015 20.75443072 -4 17 C-0.34509471 13.15273127 0.23678616 10.26518289 0.25 5.125 C0.18619084 3.41582604 0.10933663 1.70686635 0 0 Z " fill="#E53033" transform="translate(171,73)"/>
<path d="M0 0 C0.92683594 0.01353516 1.85367187 0.02707031 2.80859375 0.04101562 C5.08133998 0.07616119 7.35285847 0.12535868 9.625 0.1875 C9.74925623 5.59513101 9.83964659 11.00191829 9.8996582 16.41064453 C9.92469289 18.24770599 9.95873145 20.08466893 10.00219727 21.92138672 C10.06334037 24.57283927 10.09131957 27.22296734 10.11328125 29.875 C10.13908768 30.68678711 10.1648941 31.49857422 10.19148254 32.33496094 C10.19442936 38.42284806 8.49355946 42.47945603 4.625 47.1875 C1.53367605 49.76360329 -0.23663748 51.08851195 -4.25 51.4375 C-4.95125 51.355 -5.6525 51.2725 -6.375 51.1875 C-6.6875 48.5 -6.6875 48.5 -6.375 45.1875 C-4.70833333 43.52083333 -3.04166667 41.85416667 -1.375 40.1875 C-0.48972891 36.50308496 -0.48972891 36.50308496 -0.375 33.1875 C-1.1484375 33.6825 -1.1484375 33.6825 -1.9375 34.1875 C-5.31343074 35.57249723 -7.74915116 35.56258781 -11.375 35.1875 C-15.39792911 33.06217896 -17.69268282 31.4041544 -19.375 27.1875 C-19.78158553 24.05082818 -19.6994805 20.91045529 -19.6875 17.75 C-19.70361328 16.90373047 -19.71972656 16.05746094 -19.73632812 15.18554688 C-19.74005601 10.4250365 -19.67624445 6.90574375 -16.375 3.1875 C-11.17309524 -0.50185091 -6.11416983 -0.17008033 0 0 Z " fill="#2F2B22" transform="translate(407.375,78.8125)"/>
<path d="M0 0 C1.52657227 0.02707031 1.52657227 0.02707031 3.08398438 0.0546875 C5.57781655 0.10152003 8.06965047 0.16708573 10.5625 0.25 C10.5625 2.89 10.5625 5.53 10.5625 8.25 C9.97235107 8.26458252 9.38220215 8.27916504 8.77416992 8.29418945 C6.09878771 8.36868844 3.42465108 8.46533995 0.75 8.5625 C-0.17876953 8.58505859 -1.10753906 8.60761719 -2.06445312 8.63085938 C-2.95712891 8.66630859 -3.84980469 8.70175781 -4.76953125 8.73828125 C-5.59171143 8.76446533 -6.4138916 8.79064941 -7.26098633 8.81762695 C-9.90453786 9.34277892 -10.85001386 10.09686902 -12.4375 12.25 C-12.43593776 14.84117313 -12.43593776 14.84117313 -11.4375 17.25 C-8.00223323 19.54017784 -5.61244032 19.83214515 -1.5625 20.5 C6.21178551 22.0644847 6.21178551 22.0644847 8.875 25.3125 C11.41657912 29.73673032 11.90821962 32.06420566 11.5625 37.25 C9.81865027 41.93085979 7.74275185 44.52797554 3.5625 47.25 C-1.76653381 49.55135917 -6.62222093 49.48640607 -12.3125 49.375 C-13.19164062 49.36597656 -14.07078125 49.35695312 -14.9765625 49.34765625 C-17.1303271 49.32424577 -19.28395014 49.2883801 -21.4375 49.25 C-21.4375 46.28 -21.4375 43.31 -21.4375 40.25 C-20.01695312 40.18941406 -18.59640625 40.12882812 -17.1328125 40.06640625 C-15.27603091 39.98200709 -13.41926064 39.89735877 -11.5625 39.8125 C-10.62535156 39.77318359 -9.68820313 39.73386719 -8.72265625 39.69335938 C-7.82675781 39.65146484 -6.93085938 39.60957031 -6.0078125 39.56640625 C-5.18039551 39.52974854 -4.35297852 39.49309082 -3.50048828 39.45532227 C-1.37570571 39.36761673 -1.37570571 39.36761673 0.5625 38.25 C0.5625 35.94 0.5625 33.63 0.5625 31.25 C-0.53449219 31.00765625 -1.63148438 30.7653125 -2.76171875 30.515625 C-4.21630891 30.1777847 -5.67072719 29.83920375 -7.125 29.5 C-8.2068457 29.26410156 -8.2068457 29.26410156 -9.31054688 29.0234375 C-13.90276674 27.9330474 -16.9619806 26.62020063 -20.4375 23.25 C-22.79967184 19.20056256 -23.14993178 14.84022499 -22.4375 10.25 C-17.65654678 0.3056173 -9.90684031 -0.33516961 0 0 Z " fill="#2D2A22" transform="translate(236.4375,66.75)"/>
<path d="M0 0 C3.24563699 2.31831213 4.69743859 4.375486 6.625 7.875 C6.98765107 10.70767604 7.14432308 13.06662078 7.0625 15.875 C7.06958984 16.56078125 7.07667969 17.2465625 7.08398438 17.953125 C7.02577742 22.64550088 6.08203553 25.89554293 3.625 29.875 C-1.00447395 34.05281795 -3.86931189 35.24102447 -9.98828125 35.15234375 C-14.02039012 34.68380082 -16.1281172 33.34263093 -19.375 30.875 C-22.58579789 25.88545022 -22.89397418 21.62417614 -22.875 15.875 C-22.90335937 15.09382813 -22.93171875 14.31265625 -22.9609375 13.5078125 C-22.97468801 9.42391065 -22.67271513 6.69680562 -20.09375 3.4375 C-14.16092405 -2.15435894 -7.66507669 -2.55502556 0 0 Z " fill="#2A2722" transform="translate(444.375,81.125)"/>
<path d="M0 0 C3.5705978 2.550427 6.17364991 5.42190628 6.99316406 9.87597656 C7.12546967 12.07669349 7.1221618 14.23386252 7.0625 16.4375 C7.06958984 17.17935547 7.07667969 17.92121094 7.08398438 18.68554688 C7.03136827 23.23076878 6.49168555 26.16476822 3.625 29.875 C-1.10227374 34.02577694 -3.86715683 35.22374929 -10.0546875 35.1640625 C-14.6985353 34.58553601 -18.45452656 31.41030995 -21.375 27.875 C-22.63633637 24.0909909 -22.63722833 20.5071504 -22.6875 16.5625 C-22.71650391 15.81548828 -22.74550781 15.06847656 -22.77539062 14.29882812 C-22.83584237 9.0023252 -21.84064874 6.09655733 -18.375 1.875 C-13.20518026 -2.68660565 -6.19813573 -2.06604524 0 0 Z " fill="#292622" transform="translate(274.375,81.125)"/>
<path d="M0 0 C2.37570543 -0.0816082 4.74855841 -0.14077222 7.125 -0.1875 C7.79015625 -0.21263672 8.4553125 -0.23777344 9.140625 -0.26367188 C13.87807306 -0.33334023 17.05448078 0.36393571 21 3 C23.94657142 6.9270181 24.35949722 9.75670285 24.29296875 14.61328125 C24.28330078 15.86044922 24.27363281 17.10761719 24.26367188 18.39257812 C24.23853516 19.68615234 24.21339844 20.97972656 24.1875 22.3125 C24.16719727 24.28186523 24.16719727 24.28186523 24.14648438 26.29101562 C24.11117443 29.52776077 24.0618528 32.76367105 24 36 C20.43765572 36.08741124 16.87558892 36.14052896 13.3125 36.1875 C11.80139648 36.22520508 11.80139648 36.22520508 10.25976562 36.26367188 C0.70541634 36.35826939 0.70541634 36.35826939 -3 33 C-5.69381041 28.98392289 -5.8806641 24.66918135 -5 20 C-2.34760752 16.17743437 -2.34760752 16.17743437 1 15 C5.69802251 14.6032781 10.29808686 14.71015604 15 15 C14.03223902 11.20452079 14.03223902 11.20452079 12 8 C9.98405418 7.76572222 7.961526 7.58663876 5.9375 7.4375 C4.28041016 7.31181641 4.28041016 7.31181641 2.58984375 7.18359375 C1.73519531 7.12300781 0.88054687 7.06242187 0 7 C0 4.69 0 2.38 0 0 Z " fill="#292622" transform="translate(324,80)"/>
<path d="M0 0 C3.196875 -0.061875 6.39375 -0.12375 9.6875 -0.1875 C11.18543091 -0.22846802 11.18543091 -0.22846802 12.71362305 -0.27026367 C17.62771898 -0.31631011 21.04540746 -0.26582789 25 3 C29.00334374 7.5593637 30.12688972 9.86071863 30.09765625 15.8828125 C30.09443359 17.04941406 30.09121094 18.21601562 30.08789062 19.41796875 C30.07951172 20.64128906 30.07113281 21.86460938 30.0625 23.125 C30.05798828 24.35605469 30.05347656 25.58710937 30.04882812 26.85546875 C30.0370133 29.90369392 30.02054028 32.95182314 30 36 C27.03 36 24.06 36 21 36 C20.98018066 35.25314941 20.96036133 34.50629883 20.93994141 33.73681641 C20.84491789 30.36584395 20.73514741 26.99551071 20.625 23.625 C20.5940625 22.449375 20.563125 21.27375 20.53125 20.0625 C20.49257813 18.94101563 20.45390625 17.81953125 20.4140625 16.6640625 C20.36693115 15.10872803 20.36693115 15.10872803 20.31884766 13.52197266 C20.24045528 10.83190165 20.24045528 10.83190165 18 9 C15.03 8.67 12.06 8.34 9 8 C9 17.24 9 26.48 9 36 C6.03 36 3.06 36 0 36 C0 24.12 0 12.24 0 0 Z " fill="#2A2722" transform="translate(353,80)"/>
<path d="M0 0 C3.01125 -0.061875 6.0225 -0.12375 9.125 -0.1875 C10.06230957 -0.21481201 10.99961914 -0.24212402 11.96533203 -0.27026367 C17.04308107 -0.32055448 20.71792705 -0.03048783 25 3 C28.99106777 6.92499049 29.25670743 9.94706583 29.390625 15.4921875 C29.36416004 17.95342911 29.31663805 20.41451834 29.25 22.875 C29.23195313 24.13570312 29.21390625 25.39640625 29.1953125 26.6953125 C29.14830729 29.79765614 29.08260676 32.8984338 29 36 C26.36 36 23.72 36 21 36 C20.98598145 34.94087402 20.98598145 34.94087402 20.97167969 33.86035156 C20.91794341 30.65619455 20.83430243 27.45349243 20.75 24.25 C20.73582031 23.13882813 20.72164063 22.02765625 20.70703125 20.8828125 C20.67480469 19.81289062 20.64257812 18.74296875 20.609375 17.640625 C20.58842773 16.65610352 20.56748047 15.67158203 20.54589844 14.65722656 C19.82557375 11.15095919 18.94118531 10.04284628 16 8 C13.36 7.67 10.72 7.34 8 7 C8 16.57 8 26.14 8 36 C5.36 36 2.72 36 0 36 C0 24.12 0 12.24 0 0 Z " fill="#262422" transform="translate(286,80)"/>
<path d="M0 0 C0 13.2 0 26.4 0 40 C1.98 40 3.96 40 6 40 C6 42.64 6 45.28 6 48 C-1.96588869 48.62477558 -1.96588869 48.62477558 -6 46.1875 C-9.79340809 42.03845991 -9.1303445 37.4805578 -9.09765625 32.17578125 C-9.09553383 30.88367989 -9.09553383 30.88367989 -9.09336853 29.56547546 C-9.0877714 26.81444831 -9.07521946 24.06350256 -9.0625 21.3125 C-9.05748463 19.4472668 -9.05292179 17.58203233 -9.04882812 15.71679688 C-9.03780292 11.14449989 -9.02054027 6.57226375 -9 2 C-5.62902617 0.50178941 -3.79557881 0 0 0 Z " fill="#2E2A22" transform="translate(465,68)"/>
<path d="M0 0 C3.5 0.5 3.5 0.5 5.19140625 2.19140625 C7.56333545 6.37591419 7.12054532 10.83901517 6.5 15.5 C4.8125 18.6875 4.8125 18.6875 2.5 20.5 C0 21.125 0 21.125 -2.5 20.5 C-5.37262668 18.24848179 -6.36972008 16.47854693 -6.8515625 12.859375 C-7.06795656 5.50197709 -7.06795656 5.50197709 -5.19140625 2.19140625 C-3.5 0.5 -3.5 0.5 0 0 Z " fill="#E8C41B" transform="translate(266.5,87.5)"/>
<path d="M0 0 C3.4375 0.375 3.4375 0.375 5.4375 2.375 C5.66305081 4.90292663 5.76188591 7.28555576 5.75 9.8125 C5.76611328 10.49376953 5.78222656 11.17503906 5.79882812 11.87695312 C5.80171658 14.82606519 5.79821854 16.86277967 4.0703125 19.31640625 C1.64086717 20.89147726 0.26994466 20.92767213 -2.5625 20.375 C-5.43512668 18.12348179 -6.43222008 16.35354693 -6.9140625 12.734375 C-7.13027764 5.3830603 -7.13027764 5.3830603 -5.2578125 2.05859375 C-3.5625 0.375 -3.5625 0.375 0 0 Z " fill="#EEC81A" transform="translate(436.5625,87.625)"/>
<path d="M0 0 C0.10823773 2.24893954 0.18569645 4.49937575 0.25 6.75 C0.29640625 8.00296875 0.3428125 9.2559375 0.390625 10.546875 C0 14 0 14 -1.85546875 16.41796875 C-4 18 -4 18 -6.5625 18.5625 C-9 18 -9 18 -10.8125 16.0625 C-12.72081449 11.14105738 -12.88473708 6.41828134 -11.0625 1.4375 C-7.68156653 -0.91890818 -3.98940894 -0.30108747 0 0 Z " fill="#EBC61B" transform="translate(408,88)"/>
<path d="M0 0 C0 3.3 0 6.6 0 10 C-1.60875 10.04125 -3.2175 10.0825 -4.875 10.125 C-5.77992188 10.14820312 -6.68484375 10.17140625 -7.6171875 10.1953125 C-10 10 -10 10 -12 8 C-12.3125 5 -12.3125 5 -12 2 C-7.7975546 -0.80163026 -4.99895065 -0.14489712 0 0 Z " fill="#ECC71B" transform="translate(339,100)"/>
<path d="M0 0 C0.66 0.33 1.32 0.66 2 1 C-1.3 4.3 -4.6 7.6 -8 11 C-8 6.67750434 -5.85084926 5.11604454 -3 2 C-2.01 1.34 -1.02 0.68 0 0 Z " fill="#F8DD67" transform="translate(819,7)"/>
<path d="M0 0 C0.66 0.33 1.32 0.66 2 1 C-0.64 3.64 -3.28 6.28 -6 9 C-6.66 8.67 -7.32 8.34 -8 8 C-5.58443874 4.80800833 -3.31996462 2.25283313 0 0 Z " fill="#F8DD64" transform="translate(15,7)"/>
</svg>
